<svg version="1.1" xmlns="http://www.w3.org/2000/svg" viewBox="0 0 912.1015625 1172.08984375" width="1824.203125" height="2344.1796875">
  <!-- svg-source:excalidraw -->
  
  <defs>
    <style>
      @font-face {
        font-family: "Virgil";
        src: url("https://excalidraw.com/Virgil.woff2");
      }
      @font-face {
        font-family: "Cascadia";
        src: url("https://excalidraw.com/Cascadia.woff2");
      }
    </style>
  </defs>
  <rect x="0" y="0" width="912.1015625" height="1172.08984375" fill="#ffffff"></rect><g><g transform="translate(222.578125 499.25781249999994) rotate(0 0.84765625 35.1796875)"><path d="M0 0 C0.2825520833333333 11.7265625, 1.4127604166666667 58.6328125, 1.6953125 70.359375 M0 0 C0.2825520833333333 11.7265625, 1.4127604166666667 58.6328125, 1.6953125 70.359375" stroke="#000000" stroke-width="1" fill="none"></path></g></g><g><g transform="translate(319.703125 293.1328125) rotate(0 3.19140625 276.76171875)"><path d="M0 0 C1.0638020833333333 92.25390625, 5.319010416666667 461.26953125, 6.3828125 553.5234375 M0 0 C1.0638020833333333 92.25390625, 5.319010416666667 461.26953125, 6.3828125 553.5234375" stroke="#000000" stroke-width="1" fill="none"></path></g></g><g><g transform="translate(497.796875 73.1875) rotate(0 3.3828125 542.01953125)"><path d="M0 0 C1.1276041666666667 180.67317708333334, 5.638020833333333 903.3658854166666, 6.765625 1084.0390625 M0 0 C1.1276041666666667 180.67317708333334, 5.638020833333333 903.3658854166666, 6.765625 1084.0390625" stroke="#000000" stroke-width="1" fill="none"></path></g></g><g transform="translate(463.4296875 10) rotate(0 35 24)"><text x="0" y="19" font-family="Cascadia, Segoe UI Emoji" font-size="20px" fill="#000000" text-anchor="start" style="white-space: pre;" direction="ltr">main</text><text x="0" y="43" font-family="Cascadia, Segoe UI Emoji" font-size="20px" fill="#000000" text-anchor="start" style="white-space: pre;" direction="ltr">branch</text></g><g transform="translate(469.3671875 65.0546875) rotate(0 29.83203125 13.58203125)"><path d="M29.832031250000004 0 C35.904323602105855 -0.17340732608884668, 44.11122203209789 1.3070023055988271, 49.00769130928164 3.177591684669194 C53.90416058646539 5.048181063739561, 58.10090743815087 8.357627076033733, 59.21084691310247 11.2235362744222 C60.320786388054074 14.089445472810667, 58.863271502204846 17.852808622252265, 55.66732815899124 20.373046875 C52.47138481577763 22.893285127747735, 46.041595605956175 25.349645971590505, 40.03518685382083 26.344965790908606 C34.02877810168549 27.340285610226708, 25.635284398314518 27.34028561022671, 19.62887564617917 26.34496579090861 C13.622466894043825 25.34964597159051, 7.192677684222364 22.893285127747735, 3.9967343410087572 20.373046875 C0.8007909977951502 17.852808622252265, -0.6567238880540713 14.089445472810665, 0.45321558689752806 11.223536274422198 C1.5631550618491274 8.357627076033731, 5.759901913534609 5.04818106373956, 10.656371190718353 3.177591684669194 C15.552840467902097 1.3070023055988276, 26.636087906786386 0.48432517661153235, 29.832031249999993 0 C33.0279745932136 -0.48432517661153235, 29.832031250000004 0.045273437499999986, 29.832031250000004 0.27164062499999986 M29.832031250000004 0 C35.904323602105855 -0.17340732608884668, 44.11122203209789 1.3070023055988271, 49.00769130928164 3.177591684669194 C53.90416058646539 5.048181063739561, 58.10090743815087 8.357627076033733, 59.21084691310247 11.2235362744222 C60.320786388054074 14.089445472810667, 58.863271502204846 17.852808622252265, 55.66732815899124 20.373046875 C52.47138481577763 22.893285127747735, 46.041595605956175 25.349645971590505, 40.03518685382083 26.344965790908606 C34.02877810168549 27.340285610226708, 25.635284398314518 27.34028561022671, 19.62887564617917 26.34496579090861 C13.622466894043825 25.34964597159051, 7.192677684222364 22.893285127747735, 3.9967343410087572 20.373046875 C0.8007909977951502 17.852808622252265, -0.6567238880540713 14.089445472810665, 0.45321558689752806 11.223536274422198 C1.5631550618491274 8.357627076033731, 5.759901913534609 5.04818106373956, 10.656371190718353 3.177591684669194 C15.552840467902097 1.3070023055988276, 26.636087906786386 0.48432517661153235, 29.832031249999993 0 C33.0279745932136 -0.48432517661153235, 29.832031250000004 0.045273437499999986, 29.832031250000004 0.27164062499999986" stroke="none" stroke-width="0" fill="#868e96"></path><path d="M29.832031250000004 0 C35.904323602105855 -0.17340732608884668, 44.11122203209789 1.3070023055988271, 49.00769130928164 3.177591684669194 C53.90416058646539 5.048181063739561, 58.10090743815087 8.357627076033733, 59.21084691310247 11.2235362744222 C60.320786388054074 14.089445472810667, 58.863271502204846 17.852808622252265, 55.66732815899124 20.373046875 C52.47138481577763 22.893285127747735, 46.041595605956175 25.349645971590505, 40.03518685382083 26.344965790908606 C34.02877810168549 27.340285610226708, 25.635284398314518 27.34028561022671, 19.62887564617917 26.34496579090861 C13.622466894043825 25.34964597159051, 7.192677684222364 22.893285127747735, 3.9967343410087572 20.373046875 C0.8007909977951502 17.852808622252265, -0.6567238880540713 14.089445472810665, 0.45321558689752806 11.223536274422198 C1.5631550618491274 8.357627076033731, 5.759901913534609 5.04818106373956, 10.656371190718353 3.177591684669194 C15.552840467902097 1.3070023055988276, 26.636087906786386 0.48432517661153235, 29.832031249999993 0 C33.0279745932136 -0.48432517661153235, 29.832031250000004 0.045273437499999986, 29.832031250000004 0.27164062499999986 M29.832031250000004 0 C35.904323602105855 -0.17340732608884668, 44.11122203209789 1.3070023055988271, 49.00769130928164 3.177591684669194 C53.90416058646539 5.048181063739561, 58.10090743815087 8.357627076033733, 59.21084691310247 11.2235362744222 C60.320786388054074 14.089445472810667, 58.863271502204846 17.852808622252265, 55.66732815899124 20.373046875 C52.47138481577763 22.893285127747735, 46.041595605956175 25.349645971590505, 40.03518685382083 26.344965790908606 C34.02877810168549 27.340285610226708, 25.635284398314518 27.34028561022671, 19.62887564617917 26.34496579090861 C13.622466894043825 25.34964597159051, 7.192677684222364 22.893285127747735, 3.9967343410087572 20.373046875 C0.8007909977951502 17.852808622252265, -0.6567238880540713 14.089445472810665, 0.45321558689752806 11.223536274422198 C1.5631550618491274 8.357627076033731, 5.759901913534609 5.04818106373956, 10.656371190718353 3.177591684669194 C15.552840467902097 1.3070023055988276, 26.636087906786386 0.48432517661153235, 29.832031249999993 0 C33.0279745932136 -0.48432517661153235, 29.832031250000004 0.045273437499999986, 29.832031250000004 0.27164062499999986" stroke="#000000" stroke-width="1" fill="none"></path></g><g transform="translate(466.44140625 196.92578125) rotate(0 29.83203125 13.58203125)"><path d="M29.832031250000004 0 C35.904323602105855 -0.17340732608884668, 44.11122203209789 1.3070023055988271, 49.00769130928164 3.177591684669194 C53.90416058646539 5.048181063739561, 58.10090743815087 8.357627076033733, 59.21084691310247 11.2235362744222 C60.320786388054074 14.089445472810667, 58.863271502204846 17.852808622252265, 55.66732815899124 20.373046875 C52.47138481577763 22.893285127747735, 46.041595605956175 25.349645971590505, 40.03518685382083 26.344965790908606 C34.02877810168549 27.340285610226708, 25.635284398314518 27.34028561022671, 19.62887564617917 26.34496579090861 C13.622466894043825 25.34964597159051, 7.192677684222364 22.893285127747735, 3.9967343410087572 20.373046875 C0.8007909977951502 17.852808622252265, -0.6567238880540713 14.089445472810665, 0.45321558689752806 11.223536274422198 C1.5631550618491274 8.357627076033731, 5.759901913534609 5.04818106373956, 10.656371190718353 3.177591684669194 C15.552840467902097 1.3070023055988276, 26.636087906786386 0.48432517661153235, 29.832031249999993 0 C33.0279745932136 -0.48432517661153235, 29.832031250000004 0.045273437499999986, 29.832031250000004 0.27164062499999986 M29.832031250000004 0 C35.904323602105855 -0.17340732608884668, 44.11122203209789 1.3070023055988271, 49.00769130928164 3.177591684669194 C53.90416058646539 5.048181063739561, 58.10090743815087 8.357627076033733, 59.21084691310247 11.2235362744222 C60.320786388054074 14.089445472810667, 58.863271502204846 17.852808622252265, 55.66732815899124 20.373046875 C52.47138481577763 22.893285127747735, 46.041595605956175 25.349645971590505, 40.03518685382083 26.344965790908606 C34.02877810168549 27.340285610226708, 25.635284398314518 27.34028561022671, 19.62887564617917 26.34496579090861 C13.622466894043825 25.34964597159051, 7.192677684222364 22.893285127747735, 3.9967343410087572 20.373046875 C0.8007909977951502 17.852808622252265, -0.6567238880540713 14.089445472810665, 0.45321558689752806 11.223536274422198 C1.5631550618491274 8.357627076033731, 5.759901913534609 5.04818106373956, 10.656371190718353 3.177591684669194 C15.552840467902097 1.3070023055988276, 26.636087906786386 0.48432517661153235, 29.832031249999993 0 C33.0279745932136 -0.48432517661153235, 29.832031250000004 0.045273437499999986, 29.832031250000004 0.27164062499999986" stroke="none" stroke-width="0" fill="#868e96"></path><path d="M29.832031250000004 0 C35.904323602105855 -0.17340732608884668, 44.11122203209789 1.3070023055988271, 49.00769130928164 3.177591684669194 C53.90416058646539 5.048181063739561, 58.10090743815087 8.357627076033733, 59.21084691310247 11.2235362744222 C60.320786388054074 14.089445472810667, 58.863271502204846 17.852808622252265, 55.66732815899124 20.373046875 C52.47138481577763 22.893285127747735, 46.041595605956175 25.349645971590505, 40.03518685382083 26.344965790908606 C34.02877810168549 27.340285610226708, 25.635284398314518 27.34028561022671, 19.62887564617917 26.34496579090861 C13.622466894043825 25.34964597159051, 7.192677684222364 22.893285127747735, 3.9967343410087572 20.373046875 C0.8007909977951502 17.852808622252265, -0.6567238880540713 14.089445472810665, 0.45321558689752806 11.223536274422198 C1.5631550618491274 8.357627076033731, 5.759901913534609 5.04818106373956, 10.656371190718353 3.177591684669194 C15.552840467902097 1.3070023055988276, 26.636087906786386 0.48432517661153235, 29.832031249999993 0 C33.0279745932136 -0.48432517661153235, 29.832031250000004 0.045273437499999986, 29.832031250000004 0.27164062499999986 M29.832031250000004 0 C35.904323602105855 -0.17340732608884668, 44.11122203209789 1.3070023055988271, 49.00769130928164 3.177591684669194 C53.90416058646539 5.048181063739561, 58.10090743815087 8.357627076033733, 59.21084691310247 11.2235362744222 C60.320786388054074 14.089445472810667, 58.863271502204846 17.852808622252265, 55.66732815899124 20.373046875 C52.47138481577763 22.893285127747735, 46.041595605956175 25.349645971590505, 40.03518685382083 26.344965790908606 C34.02877810168549 27.340285610226708, 25.635284398314518 27.34028561022671, 19.62887564617917 26.34496579090861 C13.622466894043825 25.34964597159051, 7.192677684222364 22.893285127747735, 3.9967343410087572 20.373046875 C0.8007909977951502 17.852808622252265, -0.6567238880540713 14.089445472810665, 0.45321558689752806 11.223536274422198 C1.5631550618491274 8.357627076033731, 5.759901913534609 5.04818106373956, 10.656371190718353 3.177591684669194 C15.552840467902097 1.3070023055988276, 26.636087906786386 0.48432517661153235, 29.832031249999993 0 C33.0279745932136 -0.48432517661153235, 29.832031250000004 0.045273437499999986, 29.832031250000004 0.27164062499999986" stroke="#000000" stroke-width="1" fill="none"></path></g><g transform="translate(294.44140625 270.92578125) rotate(0 29.83203125 13.58203125)"><path d="M29.832031250000004 0 C35.904323602105855 -0.17340732608884668, 44.11122203209789 1.3070023055988271, 49.00769130928164 3.177591684669194 C53.90416058646539 5.048181063739561, 58.10090743815087 8.357627076033733, 59.21084691310247 11.2235362744222 C60.320786388054074 14.089445472810667, 58.863271502204846 17.852808622252265, 55.66732815899124 20.373046875 C52.47138481577763 22.893285127747735, 46.041595605956175 25.349645971590505, 40.03518685382083 26.344965790908606 C34.02877810168549 27.340285610226708, 25.635284398314518 27.34028561022671, 19.62887564617917 26.34496579090861 C13.622466894043825 25.34964597159051, 7.192677684222364 22.893285127747735, 3.9967343410087572 20.373046875 C0.8007909977951502 17.852808622252265, -0.6567238880540713 14.089445472810665, 0.45321558689752806 11.223536274422198 C1.5631550618491274 8.357627076033731, 5.759901913534609 5.04818106373956, 10.656371190718353 3.177591684669194 C15.552840467902097 1.3070023055988276, 26.636087906786386 0.48432517661153235, 29.832031249999993 0 C33.0279745932136 -0.48432517661153235, 29.832031250000004 0.045273437499999986, 29.832031250000004 0.27164062499999986 M29.832031250000004 0 C35.904323602105855 -0.17340732608884668, 44.11122203209789 1.3070023055988271, 49.00769130928164 3.177591684669194 C53.90416058646539 5.048181063739561, 58.10090743815087 8.357627076033733, 59.21084691310247 11.2235362744222 C60.320786388054074 14.089445472810667, 58.863271502204846 17.852808622252265, 55.66732815899124 20.373046875 C52.47138481577763 22.893285127747735, 46.041595605956175 25.349645971590505, 40.03518685382083 26.344965790908606 C34.02877810168549 27.340285610226708, 25.635284398314518 27.34028561022671, 19.62887564617917 26.34496579090861 C13.622466894043825 25.34964597159051, 7.192677684222364 22.893285127747735, 3.9967343410087572 20.373046875 C0.8007909977951502 17.852808622252265, -0.6567238880540713 14.089445472810665, 0.45321558689752806 11.223536274422198 C1.5631550618491274 8.357627076033731, 5.759901913534609 5.04818106373956, 10.656371190718353 3.177591684669194 C15.552840467902097 1.3070023055988276, 26.636087906786386 0.48432517661153235, 29.832031249999993 0 C33.0279745932136 -0.48432517661153235, 29.832031250000004 0.045273437499999986, 29.832031250000004 0.27164062499999986" stroke="none" stroke-width="0" fill="#868e96"></path><path d="M29.832031250000004 0 C35.904323602105855 -0.17340732608884668, 44.11122203209789 1.3070023055988271, 49.00769130928164 3.177591684669194 C53.90416058646539 5.048181063739561, 58.10090743815087 8.357627076033733, 59.21084691310247 11.2235362744222 C60.320786388054074 14.089445472810667, 58.863271502204846 17.852808622252265, 55.66732815899124 20.373046875 C52.47138481577763 22.893285127747735, 46.041595605956175 25.349645971590505, 40.03518685382083 26.344965790908606 C34.02877810168549 27.340285610226708, 25.635284398314518 27.34028561022671, 19.62887564617917 26.34496579090861 C13.622466894043825 25.34964597159051, 7.192677684222364 22.893285127747735, 3.9967343410087572 20.373046875 C0.8007909977951502 17.852808622252265, -0.6567238880540713 14.089445472810665, 0.45321558689752806 11.223536274422198 C1.5631550618491274 8.357627076033731, 5.759901913534609 5.04818106373956, 10.656371190718353 3.177591684669194 C15.552840467902097 1.3070023055988276, 26.636087906786386 0.48432517661153235, 29.832031249999993 0 C33.0279745932136 -0.48432517661153235, 29.832031250000004 0.045273437499999986, 29.832031250000004 0.27164062499999986 M29.832031250000004 0 C35.904323602105855 -0.17340732608884668, 44.11122203209789 1.3070023055988271, 49.00769130928164 3.177591684669194 C53.90416058646539 5.048181063739561, 58.10090743815087 8.357627076033733, 59.21084691310247 11.2235362744222 C60.320786388054074 14.089445472810667, 58.863271502204846 17.852808622252265, 55.66732815899124 20.373046875 C52.47138481577763 22.893285127747735, 46.041595605956175 25.349645971590505, 40.03518685382083 26.344965790908606 C34.02877810168549 27.340285610226708, 25.635284398314518 27.34028561022671, 19.62887564617917 26.34496579090861 C13.622466894043825 25.34964597159051, 7.192677684222364 22.893285127747735, 3.9967343410087572 20.373046875 C0.8007909977951502 17.852808622252265, -0.6567238880540713 14.089445472810665, 0.45321558689752806 11.223536274422198 C1.5631550618491274 8.357627076033731, 5.759901913534609 5.04818106373956, 10.656371190718353 3.177591684669194 C15.552840467902097 1.3070023055988276, 26.636087906786386 0.48432517661153235, 29.832031249999993 0 C33.0279745932136 -0.48432517661153235, 29.832031250000004 0.045273437499999986, 29.832031250000004 0.27164062499999986" stroke="#000000" stroke-width="1" fill="none"></path></g><g transform="translate(292.75390625 426.92578124999994) rotate(0 29.83203125 13.58203125)"><path d="M29.832031250000004 0 C35.904323602105855 -0.17340732608884668, 44.11122203209789 1.3070023055988271, 49.00769130928164 3.177591684669194 C53.90416058646539 5.048181063739561, 58.10090743815087 8.357627076033733, 59.21084691310247 11.2235362744222 C60.320786388054074 14.089445472810667, 58.863271502204846 17.852808622252265, 55.66732815899124 20.373046875 C52.47138481577763 22.893285127747735, 46.041595605956175 25.349645971590505, 40.03518685382083 26.344965790908606 C34.02877810168549 27.340285610226708, 25.635284398314518 27.34028561022671, 19.62887564617917 26.34496579090861 C13.622466894043825 25.34964597159051, 7.192677684222364 22.893285127747735, 3.9967343410087572 20.373046875 C0.8007909977951502 17.852808622252265, -0.6567238880540713 14.089445472810665, 0.45321558689752806 11.223536274422198 C1.5631550618491274 8.357627076033731, 5.759901913534609 5.04818106373956, 10.656371190718353 3.177591684669194 C15.552840467902097 1.3070023055988276, 26.636087906786386 0.48432517661153235, 29.832031249999993 0 C33.0279745932136 -0.48432517661153235, 29.832031250000004 0.045273437499999986, 29.832031250000004 0.27164062499999986 M29.832031250000004 0 C35.904323602105855 -0.17340732608884668, 44.11122203209789 1.3070023055988271, 49.00769130928164 3.177591684669194 C53.90416058646539 5.048181063739561, 58.10090743815087 8.357627076033733, 59.21084691310247 11.2235362744222 C60.320786388054074 14.089445472810667, 58.863271502204846 17.852808622252265, 55.66732815899124 20.373046875 C52.47138481577763 22.893285127747735, 46.041595605956175 25.349645971590505, 40.03518685382083 26.344965790908606 C34.02877810168549 27.340285610226708, 25.635284398314518 27.34028561022671, 19.62887564617917 26.34496579090861 C13.622466894043825 25.34964597159051, 7.192677684222364 22.893285127747735, 3.9967343410087572 20.373046875 C0.8007909977951502 17.852808622252265, -0.6567238880540713 14.089445472810665, 0.45321558689752806 11.223536274422198 C1.5631550618491274 8.357627076033731, 5.759901913534609 5.04818106373956, 10.656371190718353 3.177591684669194 C15.552840467902097 1.3070023055988276, 26.636087906786386 0.48432517661153235, 29.832031249999993 0 C33.0279745932136 -0.48432517661153235, 29.832031250000004 0.045273437499999986, 29.832031250000004 0.27164062499999986" stroke="none" stroke-width="0" fill="#868e96"></path><path d="M29.832031250000004 0 C35.904323602105855 -0.17340732608884668, 44.11122203209789 1.3070023055988271, 49.00769130928164 3.177591684669194 C53.90416058646539 5.048181063739561, 58.10090743815087 8.357627076033733, 59.21084691310247 11.2235362744222 C60.320786388054074 14.089445472810667, 58.863271502204846 17.852808622252265, 55.66732815899124 20.373046875 C52.47138481577763 22.893285127747735, 46.041595605956175 25.349645971590505, 40.03518685382083 26.344965790908606 C34.02877810168549 27.340285610226708, 25.635284398314518 27.34028561022671, 19.62887564617917 26.34496579090861 C13.622466894043825 25.34964597159051, 7.192677684222364 22.893285127747735, 3.9967343410087572 20.373046875 C0.8007909977951502 17.852808622252265, -0.6567238880540713 14.089445472810665, 0.45321558689752806 11.223536274422198 C1.5631550618491274 8.357627076033731, 5.759901913534609 5.04818106373956, 10.656371190718353 3.177591684669194 C15.552840467902097 1.3070023055988276, 26.636087906786386 0.48432517661153235, 29.832031249999993 0 C33.0279745932136 -0.48432517661153235, 29.832031250000004 0.045273437499999986, 29.832031250000004 0.27164062499999986 M29.832031250000004 0 C35.904323602105855 -0.17340732608884668, 44.11122203209789 1.3070023055988271, 49.00769130928164 3.177591684669194 C53.90416058646539 5.048181063739561, 58.10090743815087 8.357627076033733, 59.21084691310247 11.2235362744222 C60.320786388054074 14.089445472810667, 58.863271502204846 17.852808622252265, 55.66732815899124 20.373046875 C52.47138481577763 22.893285127747735, 46.041595605956175 25.349645971590505, 40.03518685382083 26.344965790908606 C34.02877810168549 27.340285610226708, 25.635284398314518 27.34028561022671, 19.62887564617917 26.34496579090861 C13.622466894043825 25.34964597159051, 7.192677684222364 22.893285127747735, 3.9967343410087572 20.373046875 C0.8007909977951502 17.852808622252265, -0.6567238880540713 14.089445472810665, 0.45321558689752806 11.223536274422198 C1.5631550618491274 8.357627076033731, 5.759901913534609 5.04818106373956, 10.656371190718353 3.177591684669194 C15.552840467902097 1.3070023055988276, 26.636087906786386 0.48432517661153235, 29.832031249999993 0 C33.0279745932136 -0.48432517661153235, 29.832031250000004 0.045273437499999986, 29.832031250000004 0.27164062499999986" stroke="#000000" stroke-width="1" fill="none"></path></g><g transform="translate(292.44140625 623.83984375) rotate(0 29.83203125 13.58203125)"><path d="M29.832031250000004 0 C35.904323602105855 -0.17340732608884668, 44.11122203209789 1.3070023055988271, 49.00769130928164 3.177591684669194 C53.90416058646539 5.048181063739561, 58.10090743815087 8.357627076033733, 59.21084691310247 11.2235362744222 C60.320786388054074 14.089445472810667, 58.863271502204846 17.852808622252265, 55.66732815899124 20.373046875 C52.47138481577763 22.893285127747735, 46.041595605956175 25.349645971590505, 40.03518685382083 26.344965790908606 C34.02877810168549 27.340285610226708, 25.635284398314518 27.34028561022671, 19.62887564617917 26.34496579090861 C13.622466894043825 25.34964597159051, 7.192677684222364 22.893285127747735, 3.9967343410087572 20.373046875 C0.8007909977951502 17.852808622252265, -0.6567238880540713 14.089445472810665, 0.45321558689752806 11.223536274422198 C1.5631550618491274 8.357627076033731, 5.759901913534609 5.04818106373956, 10.656371190718353 3.177591684669194 C15.552840467902097 1.3070023055988276, 26.636087906786386 0.48432517661153235, 29.832031249999993 0 C33.0279745932136 -0.48432517661153235, 29.832031250000004 0.045273437499999986, 29.832031250000004 0.27164062499999986 M29.832031250000004 0 C35.904323602105855 -0.17340732608884668, 44.11122203209789 1.3070023055988271, 49.00769130928164 3.177591684669194 C53.90416058646539 5.048181063739561, 58.10090743815087 8.357627076033733, 59.21084691310247 11.2235362744222 C60.320786388054074 14.089445472810667, 58.863271502204846 17.852808622252265, 55.66732815899124 20.373046875 C52.47138481577763 22.893285127747735, 46.041595605956175 25.349645971590505, 40.03518685382083 26.344965790908606 C34.02877810168549 27.340285610226708, 25.635284398314518 27.34028561022671, 19.62887564617917 26.34496579090861 C13.622466894043825 25.34964597159051, 7.192677684222364 22.893285127747735, 3.9967343410087572 20.373046875 C0.8007909977951502 17.852808622252265, -0.6567238880540713 14.089445472810665, 0.45321558689752806 11.223536274422198 C1.5631550618491274 8.357627076033731, 5.759901913534609 5.04818106373956, 10.656371190718353 3.177591684669194 C15.552840467902097 1.3070023055988276, 26.636087906786386 0.48432517661153235, 29.832031249999993 0 C33.0279745932136 -0.48432517661153235, 29.832031250000004 0.045273437499999986, 29.832031250000004 0.27164062499999986" stroke="none" stroke-width="0" fill="#868e96"></path><path d="M29.832031250000004 0 C35.904323602105855 -0.17340732608884668, 44.11122203209789 1.3070023055988271, 49.00769130928164 3.177591684669194 C53.90416058646539 5.048181063739561, 58.10090743815087 8.357627076033733, 59.21084691310247 11.2235362744222 C60.320786388054074 14.089445472810667, 58.863271502204846 17.852808622252265, 55.66732815899124 20.373046875 C52.47138481577763 22.893285127747735, 46.041595605956175 25.349645971590505, 40.03518685382083 26.344965790908606 C34.02877810168549 27.340285610226708, 25.635284398314518 27.34028561022671, 19.62887564617917 26.34496579090861 C13.622466894043825 25.34964597159051, 7.192677684222364 22.893285127747735, 3.9967343410087572 20.373046875 C0.8007909977951502 17.852808622252265, -0.6567238880540713 14.089445472810665, 0.45321558689752806 11.223536274422198 C1.5631550618491274 8.357627076033731, 5.759901913534609 5.04818106373956, 10.656371190718353 3.177591684669194 C15.552840467902097 1.3070023055988276, 26.636087906786386 0.48432517661153235, 29.832031249999993 0 C33.0279745932136 -0.48432517661153235, 29.832031250000004 0.045273437499999986, 29.832031250000004 0.27164062499999986 M29.832031250000004 0 C35.904323602105855 -0.17340732608884668, 44.11122203209789 1.3070023055988271, 49.00769130928164 3.177591684669194 C53.90416058646539 5.048181063739561, 58.10090743815087 8.357627076033733, 59.21084691310247 11.2235362744222 C60.320786388054074 14.089445472810667, 58.863271502204846 17.852808622252265, 55.66732815899124 20.373046875 C52.47138481577763 22.893285127747735, 46.041595605956175 25.349645971590505, 40.03518685382083 26.344965790908606 C34.02877810168549 27.340285610226708, 25.635284398314518 27.34028561022671, 19.62887564617917 26.34496579090861 C13.622466894043825 25.34964597159051, 7.192677684222364 22.893285127747735, 3.9967343410087572 20.373046875 C0.8007909977951502 17.852808622252265, -0.6567238880540713 14.089445472810665, 0.45321558689752806 11.223536274422198 C1.5631550618491274 8.357627076033731, 5.759901913534609 5.04818106373956, 10.656371190718353 3.177591684669194 C15.552840467902097 1.3070023055988276, 26.636087906786386 0.48432517661153235, 29.832031249999993 0 C33.0279745932136 -0.48432517661153235, 29.832031250000004 0.045273437499999986, 29.832031250000004 0.27164062499999986" stroke="#000000" stroke-width="1" fill="none"></path></g><g><g transform="translate(476.4765625 217.2421875) rotate(0 -63.91015625 28.7734375)"><path d="M0 0 C-21.303385416666668 9.591145833333334, -106.51692708333333 47.955729166666664, -127.8203125 57.546875 M0 0 C-21.303385416666668 9.591145833333334, -106.51692708333333 47.955729166666664, -127.8203125 57.546875" stroke="#000000" stroke-width="1" fill="none"></path></g></g><g transform="translate(280.7265625 202.140625) rotate(0 47 24)"><text x="0" y="19" font-family="Cascadia, Segoe UI Emoji" font-size="20px" fill="#000000" text-anchor="start" style="white-space: pre;" direction="ltr">feature </text><text x="0" y="43" font-family="Cascadia, Segoe UI Emoji" font-size="20px" fill="#000000" text-anchor="start" style="white-space: pre;" direction="ltr">branch</text></g><g transform="translate(295.55859375 836.44140625) rotate(0 29.83203125 13.58203125)"><path d="M29.832031250000004 0 C35.904323602105855 -0.17340732608884668, 44.11122203209789 1.3070023055988271, 49.00769130928164 3.177591684669194 C53.90416058646539 5.048181063739561, 58.10090743815087 8.357627076033733, 59.21084691310247 11.2235362744222 C60.320786388054074 14.089445472810667, 58.863271502204846 17.852808622252265, 55.66732815899124 20.373046875 C52.47138481577763 22.893285127747735, 46.041595605956175 25.349645971590505, 40.03518685382083 26.344965790908606 C34.02877810168549 27.340285610226708, 25.635284398314518 27.34028561022671, 19.62887564617917 26.34496579090861 C13.622466894043825 25.34964597159051, 7.192677684222364 22.893285127747735, 3.9967343410087572 20.373046875 C0.8007909977951502 17.852808622252265, -0.6567238880540713 14.089445472810665, 0.45321558689752806 11.223536274422198 C1.5631550618491274 8.357627076033731, 5.759901913534609 5.04818106373956, 10.656371190718353 3.177591684669194 C15.552840467902097 1.3070023055988276, 26.636087906786386 0.48432517661153235, 29.832031249999993 0 C33.0279745932136 -0.48432517661153235, 29.832031250000004 0.045273437499999986, 29.832031250000004 0.27164062499999986 M29.832031250000004 0 C35.904323602105855 -0.17340732608884668, 44.11122203209789 1.3070023055988271, 49.00769130928164 3.177591684669194 C53.90416058646539 5.048181063739561, 58.10090743815087 8.357627076033733, 59.21084691310247 11.2235362744222 C60.320786388054074 14.089445472810667, 58.863271502204846 17.852808622252265, 55.66732815899124 20.373046875 C52.47138481577763 22.893285127747735, 46.041595605956175 25.349645971590505, 40.03518685382083 26.344965790908606 C34.02877810168549 27.340285610226708, 25.635284398314518 27.34028561022671, 19.62887564617917 26.34496579090861 C13.622466894043825 25.34964597159051, 7.192677684222364 22.893285127747735, 3.9967343410087572 20.373046875 C0.8007909977951502 17.852808622252265, -0.6567238880540713 14.089445472810665, 0.45321558689752806 11.223536274422198 C1.5631550618491274 8.357627076033731, 5.759901913534609 5.04818106373956, 10.656371190718353 3.177591684669194 C15.552840467902097 1.3070023055988276, 26.636087906786386 0.48432517661153235, 29.832031249999993 0 C33.0279745932136 -0.48432517661153235, 29.832031250000004 0.045273437499999986, 29.832031250000004 0.27164062499999986" stroke="none" stroke-width="0" fill="#868e96"></path><path d="M29.832031250000004 0 C35.904323602105855 -0.17340732608884668, 44.11122203209789 1.3070023055988271, 49.00769130928164 3.177591684669194 C53.90416058646539 5.048181063739561, 58.10090743815087 8.357627076033733, 59.21084691310247 11.2235362744222 C60.320786388054074 14.089445472810667, 58.863271502204846 17.852808622252265, 55.66732815899124 20.373046875 C52.47138481577763 22.893285127747735, 46.041595605956175 25.349645971590505, 40.03518685382083 26.344965790908606 C34.02877810168549 27.340285610226708, 25.635284398314518 27.34028561022671, 19.62887564617917 26.34496579090861 C13.622466894043825 25.34964597159051, 7.192677684222364 22.893285127747735, 3.9967343410087572 20.373046875 C0.8007909977951502 17.852808622252265, -0.6567238880540713 14.089445472810665, 0.45321558689752806 11.223536274422198 C1.5631550618491274 8.357627076033731, 5.759901913534609 5.04818106373956, 10.656371190718353 3.177591684669194 C15.552840467902097 1.3070023055988276, 26.636087906786386 0.48432517661153235, 29.832031249999993 0 C33.0279745932136 -0.48432517661153235, 29.832031250000004 0.045273437499999986, 29.832031250000004 0.27164062499999986 M29.832031250000004 0 C35.904323602105855 -0.17340732608884668, 44.11122203209789 1.3070023055988271, 49.00769130928164 3.177591684669194 C53.90416058646539 5.048181063739561, 58.10090743815087 8.357627076033733, 59.21084691310247 11.2235362744222 C60.320786388054074 14.089445472810667, 58.863271502204846 17.852808622252265, 55.66732815899124 20.373046875 C52.47138481577763 22.893285127747735, 46.041595605956175 25.349645971590505, 40.03518685382083 26.344965790908606 C34.02877810168549 27.340285610226708, 25.635284398314518 27.34028561022671, 19.62887564617917 26.34496579090861 C13.622466894043825 25.34964597159051, 7.192677684222364 22.893285127747735, 3.9967343410087572 20.373046875 C0.8007909977951502 17.852808622252265, -0.6567238880540713 14.089445472810665, 0.45321558689752806 11.223536274422198 C1.5631550618491274 8.357627076033731, 5.759901913534609 5.04818106373956, 10.656371190718353 3.177591684669194 C15.552840467902097 1.3070023055988276, 26.636087906786386 0.48432517661153235, 29.832031249999993 0 C33.0279745932136 -0.48432517661153235, 29.832031250000004 0.045273437499999986, 29.832031250000004 0.27164062499999986" stroke="#000000" stroke-width="1" fill="none"></path></g><g><g transform="translate(347.734375 862.28125) rotate(0 71.4609375 42.38671875)"><path d="M0 0 C23.8203125 14.12890625, 119.1015625 70.64453125, 142.921875 84.7734375 M0 0 C23.8203125 14.12890625, 119.1015625 70.64453125, 142.921875 84.7734375" stroke="#000000" stroke-width="1" fill="none"></path></g></g><g transform="translate(468.44140625 930.92578125) rotate(0 29.83203125 13.58203125)"><path d="M29.832031250000004 0 C35.904323602105855 -0.17340732608884668, 44.11122203209789 1.3070023055988271, 49.00769130928164 3.177591684669194 C53.90416058646539 5.048181063739561, 58.10090743815087 8.357627076033733, 59.21084691310247 11.2235362744222 C60.320786388054074 14.089445472810667, 58.863271502204846 17.852808622252265, 55.66732815899124 20.373046875 C52.47138481577763 22.893285127747735, 46.041595605956175 25.349645971590505, 40.03518685382083 26.344965790908606 C34.02877810168549 27.340285610226708, 25.635284398314518 27.34028561022671, 19.62887564617917 26.34496579090861 C13.622466894043825 25.34964597159051, 7.192677684222364 22.893285127747735, 3.9967343410087572 20.373046875 C0.8007909977951502 17.852808622252265, -0.6567238880540713 14.089445472810665, 0.45321558689752806 11.223536274422198 C1.5631550618491274 8.357627076033731, 5.759901913534609 5.04818106373956, 10.656371190718353 3.177591684669194 C15.552840467902097 1.3070023055988276, 26.636087906786386 0.48432517661153235, 29.832031249999993 0 C33.0279745932136 -0.48432517661153235, 29.832031250000004 0.045273437499999986, 29.832031250000004 0.27164062499999986 M29.832031250000004 0 C35.904323602105855 -0.17340732608884668, 44.11122203209789 1.3070023055988271, 49.00769130928164 3.177591684669194 C53.90416058646539 5.048181063739561, 58.10090743815087 8.357627076033733, 59.21084691310247 11.2235362744222 C60.320786388054074 14.089445472810667, 58.863271502204846 17.852808622252265, 55.66732815899124 20.373046875 C52.47138481577763 22.893285127747735, 46.041595605956175 25.349645971590505, 40.03518685382083 26.344965790908606 C34.02877810168549 27.340285610226708, 25.635284398314518 27.34028561022671, 19.62887564617917 26.34496579090861 C13.622466894043825 25.34964597159051, 7.192677684222364 22.893285127747735, 3.9967343410087572 20.373046875 C0.8007909977951502 17.852808622252265, -0.6567238880540713 14.089445472810665, 0.45321558689752806 11.223536274422198 C1.5631550618491274 8.357627076033731, 5.759901913534609 5.04818106373956, 10.656371190718353 3.177591684669194 C15.552840467902097 1.3070023055988276, 26.636087906786386 0.48432517661153235, 29.832031249999993 0 C33.0279745932136 -0.48432517661153235, 29.832031250000004 0.045273437499999986, 29.832031250000004 0.27164062499999986" stroke="none" stroke-width="0" fill="#868e96"></path><path d="M29.832031250000004 0 C35.904323602105855 -0.17340732608884668, 44.11122203209789 1.3070023055988271, 49.00769130928164 3.177591684669194 C53.90416058646539 5.048181063739561, 58.10090743815087 8.357627076033733, 59.21084691310247 11.2235362744222 C60.320786388054074 14.089445472810667, 58.863271502204846 17.852808622252265, 55.66732815899124 20.373046875 C52.47138481577763 22.893285127747735, 46.041595605956175 25.349645971590505, 40.03518685382083 26.344965790908606 C34.02877810168549 27.340285610226708, 25.635284398314518 27.34028561022671, 19.62887564617917 26.34496579090861 C13.622466894043825 25.34964597159051, 7.192677684222364 22.893285127747735, 3.9967343410087572 20.373046875 C0.8007909977951502 17.852808622252265, -0.6567238880540713 14.089445472810665, 0.45321558689752806 11.223536274422198 C1.5631550618491274 8.357627076033731, 5.759901913534609 5.04818106373956, 10.656371190718353 3.177591684669194 C15.552840467902097 1.3070023055988276, 26.636087906786386 0.48432517661153235, 29.832031249999993 0 C33.0279745932136 -0.48432517661153235, 29.832031250000004 0.045273437499999986, 29.832031250000004 0.27164062499999986 M29.832031250000004 0 C35.904323602105855 -0.17340732608884668, 44.11122203209789 1.3070023055988271, 49.00769130928164 3.177591684669194 C53.90416058646539 5.048181063739561, 58.10090743815087 8.357627076033733, 59.21084691310247 11.2235362744222 C60.320786388054074 14.089445472810667, 58.863271502204846 17.852808622252265, 55.66732815899124 20.373046875 C52.47138481577763 22.893285127747735, 46.041595605956175 25.349645971590505, 40.03518685382083 26.344965790908606 C34.02877810168549 27.340285610226708, 25.635284398314518 27.34028561022671, 19.62887564617917 26.34496579090861 C13.622466894043825 25.34964597159051, 7.192677684222364 22.893285127747735, 3.9967343410087572 20.373046875 C0.8007909977951502 17.852808622252265, -0.6567238880540713 14.089445472810665, 0.45321558689752806 11.223536274422198 C1.5631550618491274 8.357627076033731, 5.759901913534609 5.04818106373956, 10.656371190718353 3.177591684669194 C15.552840467902097 1.3070023055988276, 26.636087906786386 0.48432517661153235, 29.832031249999993 0 C33.0279745932136 -0.48432517661153235, 29.832031250000004 0.045273437499999986, 29.832031250000004 0.27164062499999986" stroke="#000000" stroke-width="1" fill="none"></path></g><g transform="translate(462.44140625 382.92578124999994) rotate(0 29.83203125 13.58203125)"><path d="M29.832031250000004 0 C35.904323602105855 -0.17340732608884668, 44.11122203209789 1.3070023055988271, 49.00769130928164 3.177591684669194 C53.90416058646539 5.048181063739561, 58.10090743815087 8.357627076033733, 59.21084691310247 11.2235362744222 C60.320786388054074 14.089445472810667, 58.863271502204846 17.852808622252265, 55.66732815899124 20.373046875 C52.47138481577763 22.893285127747735, 46.041595605956175 25.349645971590505, 40.03518685382083 26.344965790908606 C34.02877810168549 27.340285610226708, 25.635284398314518 27.34028561022671, 19.62887564617917 26.34496579090861 C13.622466894043825 25.34964597159051, 7.192677684222364 22.893285127747735, 3.9967343410087572 20.373046875 C0.8007909977951502 17.852808622252265, -0.6567238880540713 14.089445472810665, 0.45321558689752806 11.223536274422198 C1.5631550618491274 8.357627076033731, 5.759901913534609 5.04818106373956, 10.656371190718353 3.177591684669194 C15.552840467902097 1.3070023055988276, 26.636087906786386 0.48432517661153235, 29.832031249999993 0 C33.0279745932136 -0.48432517661153235, 29.832031250000004 0.045273437499999986, 29.832031250000004 0.27164062499999986 M29.832031250000004 0 C35.904323602105855 -0.17340732608884668, 44.11122203209789 1.3070023055988271, 49.00769130928164 3.177591684669194 C53.90416058646539 5.048181063739561, 58.10090743815087 8.357627076033733, 59.21084691310247 11.2235362744222 C60.320786388054074 14.089445472810667, 58.863271502204846 17.852808622252265, 55.66732815899124 20.373046875 C52.47138481577763 22.893285127747735, 46.041595605956175 25.349645971590505, 40.03518685382083 26.344965790908606 C34.02877810168549 27.340285610226708, 25.635284398314518 27.34028561022671, 19.62887564617917 26.34496579090861 C13.622466894043825 25.34964597159051, 7.192677684222364 22.893285127747735, 3.9967343410087572 20.373046875 C0.8007909977951502 17.852808622252265, -0.6567238880540713 14.089445472810665, 0.45321558689752806 11.223536274422198 C1.5631550618491274 8.357627076033731, 5.759901913534609 5.04818106373956, 10.656371190718353 3.177591684669194 C15.552840467902097 1.3070023055988276, 26.636087906786386 0.48432517661153235, 29.832031249999993 0 C33.0279745932136 -0.48432517661153235, 29.832031250000004 0.045273437499999986, 29.832031250000004 0.27164062499999986" stroke="none" stroke-width="0" fill="#868e96"></path><path d="M29.832031250000004 0 C35.904323602105855 -0.17340732608884668, 44.11122203209789 1.3070023055988271, 49.00769130928164 3.177591684669194 C53.90416058646539 5.048181063739561, 58.10090743815087 8.357627076033733, 59.21084691310247 11.2235362744222 C60.320786388054074 14.089445472810667, 58.863271502204846 17.852808622252265, 55.66732815899124 20.373046875 C52.47138481577763 22.893285127747735, 46.041595605956175 25.349645971590505, 40.03518685382083 26.344965790908606 C34.02877810168549 27.340285610226708, 25.635284398314518 27.34028561022671, 19.62887564617917 26.34496579090861 C13.622466894043825 25.34964597159051, 7.192677684222364 22.893285127747735, 3.9967343410087572 20.373046875 C0.8007909977951502 17.852808622252265, -0.6567238880540713 14.089445472810665, 0.45321558689752806 11.223536274422198 C1.5631550618491274 8.357627076033731, 5.759901913534609 5.04818106373956, 10.656371190718353 3.177591684669194 C15.552840467902097 1.3070023055988276, 26.636087906786386 0.48432517661153235, 29.832031249999993 0 C33.0279745932136 -0.48432517661153235, 29.832031250000004 0.045273437499999986, 29.832031250000004 0.27164062499999986 M29.832031250000004 0 C35.904323602105855 -0.17340732608884668, 44.11122203209789 1.3070023055988271, 49.00769130928164 3.177591684669194 C53.90416058646539 5.048181063739561, 58.10090743815087 8.357627076033733, 59.21084691310247 11.2235362744222 C60.320786388054074 14.089445472810667, 58.863271502204846 17.852808622252265, 55.66732815899124 20.373046875 C52.47138481577763 22.893285127747735, 46.041595605956175 25.349645971590505, 40.03518685382083 26.344965790908606 C34.02877810168549 27.340285610226708, 25.635284398314518 27.34028561022671, 19.62887564617917 26.34496579090861 C13.622466894043825 25.34964597159051, 7.192677684222364 22.893285127747735, 3.9967343410087572 20.373046875 C0.8007909977951502 17.852808622252265, -0.6567238880540713 14.089445472810665, 0.45321558689752806 11.223536274422198 C1.5631550618491274 8.357627076033731, 5.759901913534609 5.04818106373956, 10.656371190718353 3.177591684669194 C15.552840467902097 1.3070023055988276, 26.636087906786386 0.48432517661153235, 29.832031249999993 0 C33.0279745932136 -0.48432517661153235, 29.832031250000004 0.045273437499999986, 29.832031250000004 0.27164062499999986" stroke="#000000" stroke-width="1" fill="none"></path></g><g transform="translate(472.44140625 1134.92578125) rotate(0 29.83203125 13.58203125)"><path d="M29.832031250000004 0 C35.904323602105855 -0.17340732608884668, 44.11122203209789 1.3070023055988271, 49.00769130928164 3.177591684669194 C53.90416058646539 5.048181063739561, 58.10090743815087 8.357627076033733, 59.21084691310247 11.2235362744222 C60.320786388054074 14.089445472810667, 58.863271502204846 17.852808622252265, 55.66732815899124 20.373046875 C52.47138481577763 22.893285127747735, 46.041595605956175 25.349645971590505, 40.03518685382083 26.344965790908606 C34.02877810168549 27.340285610226708, 25.635284398314518 27.34028561022671, 19.62887564617917 26.34496579090861 C13.622466894043825 25.34964597159051, 7.192677684222364 22.893285127747735, 3.9967343410087572 20.373046875 C0.8007909977951502 17.852808622252265, -0.6567238880540713 14.089445472810665, 0.45321558689752806 11.223536274422198 C1.5631550618491274 8.357627076033731, 5.759901913534609 5.04818106373956, 10.656371190718353 3.177591684669194 C15.552840467902097 1.3070023055988276, 26.636087906786386 0.48432517661153235, 29.832031249999993 0 C33.0279745932136 -0.48432517661153235, 29.832031250000004 0.045273437499999986, 29.832031250000004 0.27164062499999986 M29.832031250000004 0 C35.904323602105855 -0.17340732608884668, 44.11122203209789 1.3070023055988271, 49.00769130928164 3.177591684669194 C53.90416058646539 5.048181063739561, 58.10090743815087 8.357627076033733, 59.21084691310247 11.2235362744222 C60.320786388054074 14.089445472810667, 58.863271502204846 17.852808622252265, 55.66732815899124 20.373046875 C52.47138481577763 22.893285127747735, 46.041595605956175 25.349645971590505, 40.03518685382083 26.344965790908606 C34.02877810168549 27.340285610226708, 25.635284398314518 27.34028561022671, 19.62887564617917 26.34496579090861 C13.622466894043825 25.34964597159051, 7.192677684222364 22.893285127747735, 3.9967343410087572 20.373046875 C0.8007909977951502 17.852808622252265, -0.6567238880540713 14.089445472810665, 0.45321558689752806 11.223536274422198 C1.5631550618491274 8.357627076033731, 5.759901913534609 5.04818106373956, 10.656371190718353 3.177591684669194 C15.552840467902097 1.3070023055988276, 26.636087906786386 0.48432517661153235, 29.832031249999993 0 C33.0279745932136 -0.48432517661153235, 29.832031250000004 0.045273437499999986, 29.832031250000004 0.27164062499999986" stroke="none" stroke-width="0" fill="#868e96"></path><path d="M29.832031250000004 0 C35.904323602105855 -0.17340732608884668, 44.11122203209789 1.3070023055988271, 49.00769130928164 3.177591684669194 C53.90416058646539 5.048181063739561, 58.10090743815087 8.357627076033733, 59.21084691310247 11.2235362744222 C60.320786388054074 14.089445472810667, 58.863271502204846 17.852808622252265, 55.66732815899124 20.373046875 C52.47138481577763 22.893285127747735, 46.041595605956175 25.349645971590505, 40.03518685382083 26.344965790908606 C34.02877810168549 27.340285610226708, 25.635284398314518 27.34028561022671, 19.62887564617917 26.34496579090861 C13.622466894043825 25.34964597159051, 7.192677684222364 22.893285127747735, 3.9967343410087572 20.373046875 C0.8007909977951502 17.852808622252265, -0.6567238880540713 14.089445472810665, 0.45321558689752806 11.223536274422198 C1.5631550618491274 8.357627076033731, 5.759901913534609 5.04818106373956, 10.656371190718353 3.177591684669194 C15.552840467902097 1.3070023055988276, 26.636087906786386 0.48432517661153235, 29.832031249999993 0 C33.0279745932136 -0.48432517661153235, 29.832031250000004 0.045273437499999986, 29.832031250000004 0.27164062499999986 M29.832031250000004 0 C35.904323602105855 -0.17340732608884668, 44.11122203209789 1.3070023055988271, 49.00769130928164 3.177591684669194 C53.90416058646539 5.048181063739561, 58.10090743815087 8.357627076033733, 59.21084691310247 11.2235362744222 C60.320786388054074 14.089445472810667, 58.863271502204846 17.852808622252265, 55.66732815899124 20.373046875 C52.47138481577763 22.893285127747735, 46.041595605956175 25.349645971590505, 40.03518685382083 26.344965790908606 C34.02877810168549 27.340285610226708, 25.635284398314518 27.34028561022671, 19.62887564617917 26.34496579090861 C13.622466894043825 25.34964597159051, 7.192677684222364 22.893285127747735, 3.9967343410087572 20.373046875 C0.8007909977951502 17.852808622252265, -0.6567238880540713 14.089445472810665, 0.45321558689752806 11.223536274422198 C1.5631550618491274 8.357627076033731, 5.759901913534609 5.04818106373956, 10.656371190718353 3.177591684669194 C15.552840467902097 1.3070023055988276, 26.636087906786386 0.48432517661153235, 29.832031249999993 0 C33.0279745932136 -0.48432517661153235, 29.832031250000004 0.045273437499999986, 29.832031250000004 0.27164062499999986" stroke="#000000" stroke-width="1" fill="none"></path></g><g><g transform="translate(515.359375 400.63281249999994) rotate(0 59.15625 35.703125)"><path d="M0 0 C19.71875 11.901041666666666, 98.59375 59.505208333333336, 118.3125 71.40625 M0 0 C19.71875 11.901041666666666, 98.59375 59.505208333333336, 118.3125 71.40625" stroke="#000000" stroke-width="1" fill="none"></path></g></g><g><g transform="translate(523.9921875 1149.4921875) rotate(0 66.06640625 -57.6328125)"><path d="M0 0 C22.022135416666668 -19.2109375, 110.11067708333333 -96.0546875, 132.1328125 -115.265625 M0 0 C22.022135416666668 -19.2109375, 110.11067708333333 -96.0546875, 132.1328125 -115.265625" stroke="#000000" stroke-width="1" fill="none"></path></g></g><g transform="translate(634.3046875 356.89843749999994) rotate(0 47 36)"><text x="0" y="19" font-family="Cascadia, Segoe UI Emoji" font-size="20px" fill="#000000" text-anchor="start" style="white-space: pre;" direction="ltr">another </text><text x="0" y="43" font-family="Cascadia, Segoe UI Emoji" font-size="20px" fill="#000000" text-anchor="start" style="white-space: pre;" direction="ltr">feature</text><text x="0" y="67" font-family="Cascadia, Segoe UI Emoji" font-size="20px" fill="#000000" text-anchor="start" style="white-space: pre;" direction="ltr">branch</text></g><g><g transform="translate(648.78515625 483.24999999999994) rotate(0 3.19140625 276.76171875)"><path d="M0 0 C1.0638020833333333 92.25390625, 5.319010416666667 461.26953125, 6.3828125 553.5234375 M0 0 C1.0638020833333333 92.25390625, 5.319010416666667 461.26953125, 6.3828125 553.5234375" stroke="#000000" stroke-width="1" fill="none"></path></g></g><g transform="translate(623.5234375 461.04296874999994) rotate(0 29.83203125 13.58203125)"><path d="M29.832031250000004 0 C35.904323602105855 -0.17340732608884668, 44.11122203209789 1.3070023055988271, 49.00769130928164 3.177591684669194 C53.90416058646539 5.048181063739561, 58.10090743815087 8.357627076033733, 59.21084691310247 11.2235362744222 C60.320786388054074 14.089445472810667, 58.863271502204846 17.852808622252265, 55.66732815899124 20.373046875 C52.47138481577763 22.893285127747735, 46.041595605956175 25.349645971590505, 40.03518685382083 26.344965790908606 C34.02877810168549 27.340285610226708, 25.635284398314518 27.34028561022671, 19.62887564617917 26.34496579090861 C13.622466894043825 25.34964597159051, 7.192677684222364 22.893285127747735, 3.9967343410087572 20.373046875 C0.8007909977951502 17.852808622252265, -0.6567238880540713 14.089445472810665, 0.45321558689752806 11.223536274422198 C1.5631550618491274 8.357627076033731, 5.759901913534609 5.04818106373956, 10.656371190718353 3.177591684669194 C15.552840467902097 1.3070023055988276, 26.636087906786386 0.48432517661153235, 29.832031249999993 0 C33.0279745932136 -0.48432517661153235, 29.832031250000004 0.045273437499999986, 29.832031250000004 0.27164062499999986 M29.832031250000004 0 C35.904323602105855 -0.17340732608884668, 44.11122203209789 1.3070023055988271, 49.00769130928164 3.177591684669194 C53.90416058646539 5.048181063739561, 58.10090743815087 8.357627076033733, 59.21084691310247 11.2235362744222 C60.320786388054074 14.089445472810667, 58.863271502204846 17.852808622252265, 55.66732815899124 20.373046875 C52.47138481577763 22.893285127747735, 46.041595605956175 25.349645971590505, 40.03518685382083 26.344965790908606 C34.02877810168549 27.340285610226708, 25.635284398314518 27.34028561022671, 19.62887564617917 26.34496579090861 C13.622466894043825 25.34964597159051, 7.192677684222364 22.893285127747735, 3.9967343410087572 20.373046875 C0.8007909977951502 17.852808622252265, -0.6567238880540713 14.089445472810665, 0.45321558689752806 11.223536274422198 C1.5631550618491274 8.357627076033731, 5.759901913534609 5.04818106373956, 10.656371190718353 3.177591684669194 C15.552840467902097 1.3070023055988276, 26.636087906786386 0.48432517661153235, 29.832031249999993 0 C33.0279745932136 -0.48432517661153235, 29.832031250000004 0.045273437499999986, 29.832031250000004 0.27164062499999986" stroke="none" stroke-width="0" fill="#868e96"></path><path d="M29.832031250000004 0 C35.904323602105855 -0.17340732608884668, 44.11122203209789 1.3070023055988271, 49.00769130928164 3.177591684669194 C53.90416058646539 5.048181063739561, 58.10090743815087 8.357627076033733, 59.21084691310247 11.2235362744222 C60.320786388054074 14.089445472810667, 58.863271502204846 17.852808622252265, 55.66732815899124 20.373046875 C52.47138481577763 22.893285127747735, 46.041595605956175 25.349645971590505, 40.03518685382083 26.344965790908606 C34.02877810168549 27.340285610226708, 25.635284398314518 27.34028561022671, 19.62887564617917 26.34496579090861 C13.622466894043825 25.34964597159051, 7.192677684222364 22.893285127747735, 3.9967343410087572 20.373046875 C0.8007909977951502 17.852808622252265, -0.6567238880540713 14.089445472810665, 0.45321558689752806 11.223536274422198 C1.5631550618491274 8.357627076033731, 5.759901913534609 5.04818106373956, 10.656371190718353 3.177591684669194 C15.552840467902097 1.3070023055988276, 26.636087906786386 0.48432517661153235, 29.832031249999993 0 C33.0279745932136 -0.48432517661153235, 29.832031250000004 0.045273437499999986, 29.832031250000004 0.27164062499999986 M29.832031250000004 0 C35.904323602105855 -0.17340732608884668, 44.11122203209789 1.3070023055988271, 49.00769130928164 3.177591684669194 C53.90416058646539 5.048181063739561, 58.10090743815087 8.357627076033733, 59.21084691310247 11.2235362744222 C60.320786388054074 14.089445472810667, 58.863271502204846 17.852808622252265, 55.66732815899124 20.373046875 C52.47138481577763 22.893285127747735, 46.041595605956175 25.349645971590505, 40.03518685382083 26.344965790908606 C34.02877810168549 27.340285610226708, 25.635284398314518 27.34028561022671, 19.62887564617917 26.34496579090861 C13.622466894043825 25.34964597159051, 7.192677684222364 22.893285127747735, 3.9967343410087572 20.373046875 C0.8007909977951502 17.852808622252265, -0.6567238880540713 14.089445472810665, 0.45321558689752806 11.223536274422198 C1.5631550618491274 8.357627076033731, 5.759901913534609 5.04818106373956, 10.656371190718353 3.177591684669194 C15.552840467902097 1.3070023055988276, 26.636087906786386 0.48432517661153235, 29.832031249999993 0 C33.0279745932136 -0.48432517661153235, 29.832031250000004 0.045273437499999986, 29.832031250000004 0.27164062499999986" stroke="#000000" stroke-width="1" fill="none"></path></g><g transform="translate(624.640625 1026.55859375) rotate(0 29.83203125 13.58203125)"><path d="M29.832031250000004 0 C35.904323602105855 -0.17340732608884668, 44.11122203209789 1.3070023055988271, 49.00769130928164 3.177591684669194 C53.90416058646539 5.048181063739561, 58.10090743815087 8.357627076033733, 59.21084691310247 11.2235362744222 C60.320786388054074 14.089445472810667, 58.863271502204846 17.852808622252265, 55.66732815899124 20.373046875 C52.47138481577763 22.893285127747735, 46.041595605956175 25.349645971590505, 40.03518685382083 26.344965790908606 C34.02877810168549 27.340285610226708, 25.635284398314518 27.34028561022671, 19.62887564617917 26.34496579090861 C13.622466894043825 25.34964597159051, 7.192677684222364 22.893285127747735, 3.9967343410087572 20.373046875 C0.8007909977951502 17.852808622252265, -0.6567238880540713 14.089445472810665, 0.45321558689752806 11.223536274422198 C1.5631550618491274 8.357627076033731, 5.759901913534609 5.04818106373956, 10.656371190718353 3.177591684669194 C15.552840467902097 1.3070023055988276, 26.636087906786386 0.48432517661153235, 29.832031249999993 0 C33.0279745932136 -0.48432517661153235, 29.832031250000004 0.045273437499999986, 29.832031250000004 0.27164062499999986 M29.832031250000004 0 C35.904323602105855 -0.17340732608884668, 44.11122203209789 1.3070023055988271, 49.00769130928164 3.177591684669194 C53.90416058646539 5.048181063739561, 58.10090743815087 8.357627076033733, 59.21084691310247 11.2235362744222 C60.320786388054074 14.089445472810667, 58.863271502204846 17.852808622252265, 55.66732815899124 20.373046875 C52.47138481577763 22.893285127747735, 46.041595605956175 25.349645971590505, 40.03518685382083 26.344965790908606 C34.02877810168549 27.340285610226708, 25.635284398314518 27.34028561022671, 19.62887564617917 26.34496579090861 C13.622466894043825 25.34964597159051, 7.192677684222364 22.893285127747735, 3.9967343410087572 20.373046875 C0.8007909977951502 17.852808622252265, -0.6567238880540713 14.089445472810665, 0.45321558689752806 11.223536274422198 C1.5631550618491274 8.357627076033731, 5.759901913534609 5.04818106373956, 10.656371190718353 3.177591684669194 C15.552840467902097 1.3070023055988276, 26.636087906786386 0.48432517661153235, 29.832031249999993 0 C33.0279745932136 -0.48432517661153235, 29.832031250000004 0.045273437499999986, 29.832031250000004 0.27164062499999986" stroke="none" stroke-width="0" fill="#868e96"></path><path d="M29.832031250000004 0 C35.904323602105855 -0.17340732608884668, 44.11122203209789 1.3070023055988271, 49.00769130928164 3.177591684669194 C53.90416058646539 5.048181063739561, 58.10090743815087 8.357627076033733, 59.21084691310247 11.2235362744222 C60.320786388054074 14.089445472810667, 58.863271502204846 17.852808622252265, 55.66732815899124 20.373046875 C52.47138481577763 22.893285127747735, 46.041595605956175 25.349645971590505, 40.03518685382083 26.344965790908606 C34.02877810168549 27.340285610226708, 25.635284398314518 27.34028561022671, 19.62887564617917 26.34496579090861 C13.622466894043825 25.34964597159051, 7.192677684222364 22.893285127747735, 3.9967343410087572 20.373046875 C0.8007909977951502 17.852808622252265, -0.6567238880540713 14.089445472810665, 0.45321558689752806 11.223536274422198 C1.5631550618491274 8.357627076033731, 5.759901913534609 5.04818106373956, 10.656371190718353 3.177591684669194 C15.552840467902097 1.3070023055988276, 26.636087906786386 0.48432517661153235, 29.832031249999993 0 C33.0279745932136 -0.48432517661153235, 29.832031250000004 0.045273437499999986, 29.832031250000004 0.27164062499999986 M29.832031250000004 0 C35.904323602105855 -0.17340732608884668, 44.11122203209789 1.3070023055988271, 49.00769130928164 3.177591684669194 C53.90416058646539 5.048181063739561, 58.10090743815087 8.357627076033733, 59.21084691310247 11.2235362744222 C60.320786388054074 14.089445472810667, 58.863271502204846 17.852808622252265, 55.66732815899124 20.373046875 C52.47138481577763 22.893285127747735, 46.041595605956175 25.349645971590505, 40.03518685382083 26.344965790908606 C34.02877810168549 27.340285610226708, 25.635284398314518 27.34028561022671, 19.62887564617917 26.34496579090861 C13.622466894043825 25.34964597159051, 7.192677684222364 22.893285127747735, 3.9967343410087572 20.373046875 C0.8007909977951502 17.852808622252265, -0.6567238880540713 14.089445472810665, 0.45321558689752806 11.223536274422198 C1.5631550618491274 8.357627076033731, 5.759901913534609 5.04818106373956, 10.656371190718353 3.177591684669194 C15.552840467902097 1.3070023055988276, 26.636087906786386 0.48432517661153235, 29.832031249999993 0 C33.0279745932136 -0.48432517661153235, 29.832031250000004 0.045273437499999986, 29.832031250000004 0.27164062499999986" stroke="#000000" stroke-width="1" fill="none"></path></g><g><g transform="translate(295.4453125 447.11718749999994) rotate(0 -33.92578125 21.8984375)"><path d="M0 0 C-11.30859375 7.299479166666667, -56.54296875 36.497395833333336, -67.8515625 43.796875 M0 0 C-11.30859375 7.299479166666667, -56.54296875 36.497395833333336, -67.8515625 43.796875" stroke="#000000" stroke-width="1" fill="none"></path></g></g><g transform="translate(186.44140625 478.92578124999994) rotate(0 29.83203125 13.58203125)"><path d="M29.832031250000004 0 C35.904323602105855 -0.17340732608884668, 44.11122203209789 1.3070023055988271, 49.00769130928164 3.177591684669194 C53.90416058646539 5.048181063739561, 58.10090743815087 8.357627076033733, 59.21084691310247 11.2235362744222 C60.320786388054074 14.089445472810667, 58.863271502204846 17.852808622252265, 55.66732815899124 20.373046875 C52.47138481577763 22.893285127747735, 46.041595605956175 25.349645971590505, 40.03518685382083 26.344965790908606 C34.02877810168549 27.340285610226708, 25.635284398314518 27.34028561022671, 19.62887564617917 26.34496579090861 C13.622466894043825 25.34964597159051, 7.192677684222364 22.893285127747735, 3.9967343410087572 20.373046875 C0.8007909977951502 17.852808622252265, -0.6567238880540713 14.089445472810665, 0.45321558689752806 11.223536274422198 C1.5631550618491274 8.357627076033731, 5.759901913534609 5.04818106373956, 10.656371190718353 3.177591684669194 C15.552840467902097 1.3070023055988276, 26.636087906786386 0.48432517661153235, 29.832031249999993 0 C33.0279745932136 -0.48432517661153235, 29.832031250000004 0.045273437499999986, 29.832031250000004 0.27164062499999986 M29.832031250000004 0 C35.904323602105855 -0.17340732608884668, 44.11122203209789 1.3070023055988271, 49.00769130928164 3.177591684669194 C53.90416058646539 5.048181063739561, 58.10090743815087 8.357627076033733, 59.21084691310247 11.2235362744222 C60.320786388054074 14.089445472810667, 58.863271502204846 17.852808622252265, 55.66732815899124 20.373046875 C52.47138481577763 22.893285127747735, 46.041595605956175 25.349645971590505, 40.03518685382083 26.344965790908606 C34.02877810168549 27.340285610226708, 25.635284398314518 27.34028561022671, 19.62887564617917 26.34496579090861 C13.622466894043825 25.34964597159051, 7.192677684222364 22.893285127747735, 3.9967343410087572 20.373046875 C0.8007909977951502 17.852808622252265, -0.6567238880540713 14.089445472810665, 0.45321558689752806 11.223536274422198 C1.5631550618491274 8.357627076033731, 5.759901913534609 5.04818106373956, 10.656371190718353 3.177591684669194 C15.552840467902097 1.3070023055988276, 26.636087906786386 0.48432517661153235, 29.832031249999993 0 C33.0279745932136 -0.48432517661153235, 29.832031250000004 0.045273437499999986, 29.832031250000004 0.27164062499999986" stroke="none" stroke-width="0" fill="#868e96"></path><path d="M29.832031250000004 0 C35.904323602105855 -0.17340732608884668, 44.11122203209789 1.3070023055988271, 49.00769130928164 3.177591684669194 C53.90416058646539 5.048181063739561, 58.10090743815087 8.357627076033733, 59.21084691310247 11.2235362744222 C60.320786388054074 14.089445472810667, 58.863271502204846 17.852808622252265, 55.66732815899124 20.373046875 C52.47138481577763 22.893285127747735, 46.041595605956175 25.349645971590505, 40.03518685382083 26.344965790908606 C34.02877810168549 27.340285610226708, 25.635284398314518 27.34028561022671, 19.62887564617917 26.34496579090861 C13.622466894043825 25.34964597159051, 7.192677684222364 22.893285127747735, 3.9967343410087572 20.373046875 C0.8007909977951502 17.852808622252265, -0.6567238880540713 14.089445472810665, 0.45321558689752806 11.223536274422198 C1.5631550618491274 8.357627076033731, 5.759901913534609 5.04818106373956, 10.656371190718353 3.177591684669194 C15.552840467902097 1.3070023055988276, 26.636087906786386 0.48432517661153235, 29.832031249999993 0 C33.0279745932136 -0.48432517661153235, 29.832031250000004 0.045273437499999986, 29.832031250000004 0.27164062499999986 M29.832031250000004 0 C35.904323602105855 -0.17340732608884668, 44.11122203209789 1.3070023055988271, 49.00769130928164 3.177591684669194 C53.90416058646539 5.048181063739561, 58.10090743815087 8.357627076033733, 59.21084691310247 11.2235362744222 C60.320786388054074 14.089445472810667, 58.863271502204846 17.852808622252265, 55.66732815899124 20.373046875 C52.47138481577763 22.893285127747735, 46.041595605956175 25.349645971590505, 40.03518685382083 26.344965790908606 C34.02877810168549 27.340285610226708, 25.635284398314518 27.34028561022671, 19.62887564617917 26.34496579090861 C13.622466894043825 25.34964597159051, 7.192677684222364 22.893285127747735, 3.9967343410087572 20.373046875 C0.8007909977951502 17.852808622252265, -0.6567238880540713 14.089445472810665, 0.45321558689752806 11.223536274422198 C1.5631550618491274 8.357627076033731, 5.759901913534609 5.04818106373956, 10.656371190718353 3.177591684669194 C15.552840467902097 1.3070023055988276, 26.636087906786386 0.48432517661153235, 29.832031249999993 0 C33.0279745932136 -0.48432517661153235, 29.832031250000004 0.045273437499999986, 29.832031250000004 0.27164062499999986" stroke="#000000" stroke-width="1" fill="none"></path></g><g transform="translate(191.05078125 562.91015625) rotate(0 29.83203125 13.58203125)"><path d="M29.832031250000004 0 C35.904323602105855 -0.17340732608884668, 44.11122203209789 1.3070023055988271, 49.00769130928164 3.177591684669194 C53.90416058646539 5.048181063739561, 58.10090743815087 8.357627076033733, 59.21084691310247 11.2235362744222 C60.320786388054074 14.089445472810667, 58.863271502204846 17.852808622252265, 55.66732815899124 20.373046875 C52.47138481577763 22.893285127747735, 46.041595605956175 25.349645971590505, 40.03518685382083 26.344965790908606 C34.02877810168549 27.340285610226708, 25.635284398314518 27.34028561022671, 19.62887564617917 26.34496579090861 C13.622466894043825 25.34964597159051, 7.192677684222364 22.893285127747735, 3.9967343410087572 20.373046875 C0.8007909977951502 17.852808622252265, -0.6567238880540713 14.089445472810665, 0.45321558689752806 11.223536274422198 C1.5631550618491274 8.357627076033731, 5.759901913534609 5.04818106373956, 10.656371190718353 3.177591684669194 C15.552840467902097 1.3070023055988276, 26.636087906786386 0.48432517661153235, 29.832031249999993 0 C33.0279745932136 -0.48432517661153235, 29.832031250000004 0.045273437499999986, 29.832031250000004 0.27164062499999986 M29.832031250000004 0 C35.904323602105855 -0.17340732608884668, 44.11122203209789 1.3070023055988271, 49.00769130928164 3.177591684669194 C53.90416058646539 5.048181063739561, 58.10090743815087 8.357627076033733, 59.21084691310247 11.2235362744222 C60.320786388054074 14.089445472810667, 58.863271502204846 17.852808622252265, 55.66732815899124 20.373046875 C52.47138481577763 22.893285127747735, 46.041595605956175 25.349645971590505, 40.03518685382083 26.344965790908606 C34.02877810168549 27.340285610226708, 25.635284398314518 27.34028561022671, 19.62887564617917 26.34496579090861 C13.622466894043825 25.34964597159051, 7.192677684222364 22.893285127747735, 3.9967343410087572 20.373046875 C0.8007909977951502 17.852808622252265, -0.6567238880540713 14.089445472810665, 0.45321558689752806 11.223536274422198 C1.5631550618491274 8.357627076033731, 5.759901913534609 5.04818106373956, 10.656371190718353 3.177591684669194 C15.552840467902097 1.3070023055988276, 26.636087906786386 0.48432517661153235, 29.832031249999993 0 C33.0279745932136 -0.48432517661153235, 29.832031250000004 0.045273437499999986, 29.832031250000004 0.27164062499999986" stroke="none" stroke-width="0" fill="#868e96"></path><path d="M29.832031250000004 0 C35.904323602105855 -0.17340732608884668, 44.11122203209789 1.3070023055988271, 49.00769130928164 3.177591684669194 C53.90416058646539 5.048181063739561, 58.10090743815087 8.357627076033733, 59.21084691310247 11.2235362744222 C60.320786388054074 14.089445472810667, 58.863271502204846 17.852808622252265, 55.66732815899124 20.373046875 C52.47138481577763 22.893285127747735, 46.041595605956175 25.349645971590505, 40.03518685382083 26.344965790908606 C34.02877810168549 27.340285610226708, 25.635284398314518 27.34028561022671, 19.62887564617917 26.34496579090861 C13.622466894043825 25.34964597159051, 7.192677684222364 22.893285127747735, 3.9967343410087572 20.373046875 C0.8007909977951502 17.852808622252265, -0.6567238880540713 14.089445472810665, 0.45321558689752806 11.223536274422198 C1.5631550618491274 8.357627076033731, 5.759901913534609 5.04818106373956, 10.656371190718353 3.177591684669194 C15.552840467902097 1.3070023055988276, 26.636087906786386 0.48432517661153235, 29.832031249999993 0 C33.0279745932136 -0.48432517661153235, 29.832031250000004 0.045273437499999986, 29.832031250000004 0.27164062499999986 M29.832031250000004 0 C35.904323602105855 -0.17340732608884668, 44.11122203209789 1.3070023055988271, 49.00769130928164 3.177591684669194 C53.90416058646539 5.048181063739561, 58.10090743815087 8.357627076033733, 59.21084691310247 11.2235362744222 C60.320786388054074 14.089445472810667, 58.863271502204846 17.852808622252265, 55.66732815899124 20.373046875 C52.47138481577763 22.893285127747735, 46.041595605956175 25.349645971590505, 40.03518685382083 26.344965790908606 C34.02877810168549 27.340285610226708, 25.635284398314518 27.34028561022671, 19.62887564617917 26.34496579090861 C13.622466894043825 25.34964597159051, 7.192677684222364 22.893285127747735, 3.9967343410087572 20.373046875 C0.8007909977951502 17.852808622252265, -0.6567238880540713 14.089445472810665, 0.45321558689752806 11.223536274422198 C1.5631550618491274 8.357627076033731, 5.759901913534609 5.04818106373956, 10.656371190718353 3.177591684669194 C15.552840467902097 1.3070023055988276, 26.636087906786386 0.48432517661153235, 29.832031249999993 0 C33.0279745932136 -0.48432517661153235, 29.832031250000004 0.045273437499999986, 29.832031250000004 0.27164062499999986" stroke="#000000" stroke-width="1" fill="none"></path></g><g><g transform="translate(236.2265625 589.0625) rotate(0 31.9921875 23.1328125)"><path d="M0 0 C10.6640625 7.7109375, 53.3203125 38.5546875, 63.984375 46.265625 M0 0 C10.6640625 7.7109375, 53.3203125 38.5546875, 63.984375 46.265625" stroke="#000000" stroke-width="1" fill="none"></path></g></g><g transform="translate(86.2578125 396.44531249999994) rotate(0 94 24)"><text x="0" y="19" font-family="Cascadia, Segoe UI Emoji" font-size="20px" fill="#000000" text-anchor="start" style="white-space: pre;" direction="ltr">a task branch</text><text x="0" y="43" font-family="Cascadia, Segoe UI Emoji" font-size="20px" fill="#000000" text-anchor="start" style="white-space: pre;" direction="ltr">for this feature</text></g><g><g transform="translate(754.6085579755575 693.4933130108152) rotate(179.4545095910316 0.84765625 35.1796875)"><path d="M0 0 C0.2825520833333333 11.7265625, 1.4127604166666667 58.6328125, 1.6953125 70.359375 M0 0 C0.2825520833333333 11.7265625, 1.4127604166666667 58.6328125, 1.6953125 70.359375" stroke="#000000" stroke-width="1" fill="none"></path></g></g><g transform="translate(627.3627745421568 809.960450096627) rotate(179.4545095910316 29.83203125 13.58203125)"><path d="M29.832031250000004 0 C35.904323602105855 -0.17340732608884668, 44.11122203209789 1.3070023055988271, 49.00769130928164 3.177591684669194 C53.90416058646539 5.048181063739561, 58.10090743815087 8.357627076033733, 59.21084691310247 11.2235362744222 C60.320786388054074 14.089445472810667, 58.863271502204846 17.852808622252265, 55.66732815899124 20.373046875 C52.47138481577763 22.893285127747735, 46.041595605956175 25.349645971590505, 40.03518685382083 26.344965790908606 C34.02877810168549 27.340285610226708, 25.635284398314518 27.34028561022671, 19.62887564617917 26.34496579090861 C13.622466894043825 25.34964597159051, 7.192677684222364 22.893285127747735, 3.9967343410087572 20.373046875 C0.8007909977951502 17.852808622252265, -0.6567238880540713 14.089445472810665, 0.45321558689752806 11.223536274422198 C1.5631550618491274 8.357627076033731, 5.759901913534609 5.04818106373956, 10.656371190718353 3.177591684669194 C15.552840467902097 1.3070023055988276, 26.636087906786386 0.48432517661153235, 29.832031249999993 0 C33.0279745932136 -0.48432517661153235, 29.832031250000004 0.045273437499999986, 29.832031250000004 0.27164062499999986 M29.832031250000004 0 C35.904323602105855 -0.17340732608884668, 44.11122203209789 1.3070023055988271, 49.00769130928164 3.177591684669194 C53.90416058646539 5.048181063739561, 58.10090743815087 8.357627076033733, 59.21084691310247 11.2235362744222 C60.320786388054074 14.089445472810667, 58.863271502204846 17.852808622252265, 55.66732815899124 20.373046875 C52.47138481577763 22.893285127747735, 46.041595605956175 25.349645971590505, 40.03518685382083 26.344965790908606 C34.02877810168549 27.340285610226708, 25.635284398314518 27.34028561022671, 19.62887564617917 26.34496579090861 C13.622466894043825 25.34964597159051, 7.192677684222364 22.893285127747735, 3.9967343410087572 20.373046875 C0.8007909977951502 17.852808622252265, -0.6567238880540713 14.089445472810665, 0.45321558689752806 11.223536274422198 C1.5631550618491274 8.357627076033731, 5.759901913534609 5.04818106373956, 10.656371190718353 3.177591684669194 C15.552840467902097 1.3070023055988276, 26.636087906786386 0.48432517661153235, 29.832031249999993 0 C33.0279745932136 -0.48432517661153235, 29.832031250000004 0.045273437499999986, 29.832031250000004 0.27164062499999986" stroke="none" stroke-width="0" fill="#868e96"></path><path d="M29.832031250000004 0 C35.904323602105855 -0.17340732608884668, 44.11122203209789 1.3070023055988271, 49.00769130928164 3.177591684669194 C53.90416058646539 5.048181063739561, 58.10090743815087 8.357627076033733, 59.21084691310247 11.2235362744222 C60.320786388054074 14.089445472810667, 58.863271502204846 17.852808622252265, 55.66732815899124 20.373046875 C52.47138481577763 22.893285127747735, 46.041595605956175 25.349645971590505, 40.03518685382083 26.344965790908606 C34.02877810168549 27.340285610226708, 25.635284398314518 27.34028561022671, 19.62887564617917 26.34496579090861 C13.622466894043825 25.34964597159051, 7.192677684222364 22.893285127747735, 3.9967343410087572 20.373046875 C0.8007909977951502 17.852808622252265, -0.6567238880540713 14.089445472810665, 0.45321558689752806 11.223536274422198 C1.5631550618491274 8.357627076033731, 5.759901913534609 5.04818106373956, 10.656371190718353 3.177591684669194 C15.552840467902097 1.3070023055988276, 26.636087906786386 0.48432517661153235, 29.832031249999993 0 C33.0279745932136 -0.48432517661153235, 29.832031250000004 0.045273437499999986, 29.832031250000004 0.27164062499999986 M29.832031250000004 0 C35.904323602105855 -0.17340732608884668, 44.11122203209789 1.3070023055988271, 49.00769130928164 3.177591684669194 C53.90416058646539 5.048181063739561, 58.10090743815087 8.357627076033733, 59.21084691310247 11.2235362744222 C60.320786388054074 14.089445472810667, 58.863271502204846 17.852808622252265, 55.66732815899124 20.373046875 C52.47138481577763 22.893285127747735, 46.041595605956175 25.349645971590505, 40.03518685382083 26.344965790908606 C34.02877810168549 27.340285610226708, 25.635284398314518 27.34028561022671, 19.62887564617917 26.34496579090861 C13.622466894043825 25.34964597159051, 7.192677684222364 22.893285127747735, 3.9967343410087572 20.373046875 C0.8007909977951502 17.852808622252265, -0.6567238880540713 14.089445472810665, 0.45321558689752806 11.223536274422198 C1.5631550618491274 8.357627076033731, 5.759901913534609 5.04818106373956, 10.656371190718353 3.177591684669194 C15.552840467902097 1.3070023055988276, 26.636087906786386 0.48432517661153235, 29.832031249999993 0 C33.0279745932136 -0.48432517661153235, 29.832031250000004 0.045273437499999986, 29.832031250000004 0.27164062499999986" stroke="#000000" stroke-width="1" fill="none"></path></g><g transform="translate(625.8005479540061 613.0523367173373) rotate(179.4545095910316 29.83203125 13.58203125)"><path d="M29.832031250000004 0 C35.904323602105855 -0.17340732608884668, 44.11122203209789 1.3070023055988271, 49.00769130928164 3.177591684669194 C53.90416058646539 5.048181063739561, 58.10090743815087 8.357627076033733, 59.21084691310247 11.2235362744222 C60.320786388054074 14.089445472810667, 58.863271502204846 17.852808622252265, 55.66732815899124 20.373046875 C52.47138481577763 22.893285127747735, 46.041595605956175 25.349645971590505, 40.03518685382083 26.344965790908606 C34.02877810168549 27.340285610226708, 25.635284398314518 27.34028561022671, 19.62887564617917 26.34496579090861 C13.622466894043825 25.34964597159051, 7.192677684222364 22.893285127747735, 3.9967343410087572 20.373046875 C0.8007909977951502 17.852808622252265, -0.6567238880540713 14.089445472810665, 0.45321558689752806 11.223536274422198 C1.5631550618491274 8.357627076033731, 5.759901913534609 5.04818106373956, 10.656371190718353 3.177591684669194 C15.552840467902097 1.3070023055988276, 26.636087906786386 0.48432517661153235, 29.832031249999993 0 C33.0279745932136 -0.48432517661153235, 29.832031250000004 0.045273437499999986, 29.832031250000004 0.27164062499999986 M29.832031250000004 0 C35.904323602105855 -0.17340732608884668, 44.11122203209789 1.3070023055988271, 49.00769130928164 3.177591684669194 C53.90416058646539 5.048181063739561, 58.10090743815087 8.357627076033733, 59.21084691310247 11.2235362744222 C60.320786388054074 14.089445472810667, 58.863271502204846 17.852808622252265, 55.66732815899124 20.373046875 C52.47138481577763 22.893285127747735, 46.041595605956175 25.349645971590505, 40.03518685382083 26.344965790908606 C34.02877810168549 27.340285610226708, 25.635284398314518 27.34028561022671, 19.62887564617917 26.34496579090861 C13.622466894043825 25.34964597159051, 7.192677684222364 22.893285127747735, 3.9967343410087572 20.373046875 C0.8007909977951502 17.852808622252265, -0.6567238880540713 14.089445472810665, 0.45321558689752806 11.223536274422198 C1.5631550618491274 8.357627076033731, 5.759901913534609 5.04818106373956, 10.656371190718353 3.177591684669194 C15.552840467902097 1.3070023055988276, 26.636087906786386 0.48432517661153235, 29.832031249999993 0 C33.0279745932136 -0.48432517661153235, 29.832031250000004 0.045273437499999986, 29.832031250000004 0.27164062499999986" stroke="none" stroke-width="0" fill="#868e96"></path><path d="M29.832031250000004 0 C35.904323602105855 -0.17340732608884668, 44.11122203209789 1.3070023055988271, 49.00769130928164 3.177591684669194 C53.90416058646539 5.048181063739561, 58.10090743815087 8.357627076033733, 59.21084691310247 11.2235362744222 C60.320786388054074 14.089445472810667, 58.863271502204846 17.852808622252265, 55.66732815899124 20.373046875 C52.47138481577763 22.893285127747735, 46.041595605956175 25.349645971590505, 40.03518685382083 26.344965790908606 C34.02877810168549 27.340285610226708, 25.635284398314518 27.34028561022671, 19.62887564617917 26.34496579090861 C13.622466894043825 25.34964597159051, 7.192677684222364 22.893285127747735, 3.9967343410087572 20.373046875 C0.8007909977951502 17.852808622252265, -0.6567238880540713 14.089445472810665, 0.45321558689752806 11.223536274422198 C1.5631550618491274 8.357627076033731, 5.759901913534609 5.04818106373956, 10.656371190718353 3.177591684669194 C15.552840467902097 1.3070023055988276, 26.636087906786386 0.48432517661153235, 29.832031249999993 0 C33.0279745932136 -0.48432517661153235, 29.832031250000004 0.045273437499999986, 29.832031250000004 0.27164062499999986 M29.832031250000004 0 C35.904323602105855 -0.17340732608884668, 44.11122203209789 1.3070023055988271, 49.00769130928164 3.177591684669194 C53.90416058646539 5.048181063739561, 58.10090743815087 8.357627076033733, 59.21084691310247 11.2235362744222 C60.320786388054074 14.089445472810667, 58.863271502204846 17.852808622252265, 55.66732815899124 20.373046875 C52.47138481577763 22.893285127747735, 46.041595605956175 25.349645971590505, 40.03518685382083 26.344965790908606 C34.02877810168549 27.340285610226708, 25.635284398314518 27.34028561022671, 19.62887564617917 26.34496579090861 C13.622466894043825 25.34964597159051, 7.192677684222364 22.893285127747735, 3.9967343410087572 20.373046875 C0.8007909977951502 17.852808622252265, -0.6567238880540713 14.089445472810665, 0.45321558689752806 11.223536274422198 C1.5631550618491274 8.357627076033731, 5.759901913534609 5.04818106373956, 10.656371190718353 3.177591684669194 C15.552840467902097 1.3070023055988276, 26.636087906786386 0.48432517661153235, 29.832031249999993 0 C33.0279745932136 -0.48432517661153235, 29.832031250000004 0.045273437499999986, 29.832031250000004 0.27164062499999986" stroke="#000000" stroke-width="1" fill="none"></path></g><g><g transform="translate(751.9128182414397 772.5561430691896) rotate(179.4545095910316 -33.92578125 21.8984375)"><path d="M0 0 C-11.30859375 7.299479166666667, -56.54296875 36.497395833333336, -67.8515625 43.796875 M0 0 C-11.30859375 7.299479166666667, -56.54296875 36.497395833333336, -67.8515625 43.796875" stroke="#000000" stroke-width="1" fill="none"></path></g></g><g transform="translate(715.701171875 672.771484375) rotate(0 29.83203125 13.58203125)"><path d="M29.832031250000004 0 C35.904323602105855 -0.17340732608884668, 44.11122203209789 1.3070023055988271, 49.00769130928164 3.177591684669194 C53.90416058646539 5.048181063739561, 58.10090743815087 8.357627076033733, 59.21084691310247 11.2235362744222 C60.320786388054074 14.089445472810667, 58.863271502204846 17.852808622252265, 55.66732815899124 20.373046875 C52.47138481577763 22.893285127747735, 46.041595605956175 25.349645971590505, 40.03518685382083 26.344965790908606 C34.02877810168549 27.340285610226708, 25.635284398314518 27.34028561022671, 19.62887564617917 26.34496579090861 C13.622466894043825 25.34964597159051, 7.192677684222364 22.893285127747735, 3.9967343410087572 20.373046875 C0.8007909977951502 17.852808622252265, -0.6567238880540713 14.089445472810665, 0.45321558689752806 11.223536274422198 C1.5631550618491274 8.357627076033731, 5.759901913534609 5.04818106373956, 10.656371190718353 3.177591684669194 C15.552840467902097 1.3070023055988276, 26.636087906786386 0.48432517661153235, 29.832031249999993 0 C33.0279745932136 -0.48432517661153235, 29.832031250000004 0.045273437499999986, 29.832031250000004 0.27164062499999986 M29.832031250000004 0 C35.904323602105855 -0.17340732608884668, 44.11122203209789 1.3070023055988271, 49.00769130928164 3.177591684669194 C53.90416058646539 5.048181063739561, 58.10090743815087 8.357627076033733, 59.21084691310247 11.2235362744222 C60.320786388054074 14.089445472810667, 58.863271502204846 17.852808622252265, 55.66732815899124 20.373046875 C52.47138481577763 22.893285127747735, 46.041595605956175 25.349645971590505, 40.03518685382083 26.344965790908606 C34.02877810168549 27.340285610226708, 25.635284398314518 27.34028561022671, 19.62887564617917 26.34496579090861 C13.622466894043825 25.34964597159051, 7.192677684222364 22.893285127747735, 3.9967343410087572 20.373046875 C0.8007909977951502 17.852808622252265, -0.6567238880540713 14.089445472810665, 0.45321558689752806 11.223536274422198 C1.5631550618491274 8.357627076033731, 5.759901913534609 5.04818106373956, 10.656371190718353 3.177591684669194 C15.552840467902097 1.3070023055988276, 26.636087906786386 0.48432517661153235, 29.832031249999993 0 C33.0279745932136 -0.48432517661153235, 29.832031250000004 0.045273437499999986, 29.832031250000004 0.27164062499999986" stroke="none" stroke-width="0" fill="#868e96"></path><path d="M29.832031250000004 0 C35.904323602105855 -0.17340732608884668, 44.11122203209789 1.3070023055988271, 49.00769130928164 3.177591684669194 C53.90416058646539 5.048181063739561, 58.10090743815087 8.357627076033733, 59.21084691310247 11.2235362744222 C60.320786388054074 14.089445472810667, 58.863271502204846 17.852808622252265, 55.66732815899124 20.373046875 C52.47138481577763 22.893285127747735, 46.041595605956175 25.349645971590505, 40.03518685382083 26.344965790908606 C34.02877810168549 27.340285610226708, 25.635284398314518 27.34028561022671, 19.62887564617917 26.34496579090861 C13.622466894043825 25.34964597159051, 7.192677684222364 22.893285127747735, 3.9967343410087572 20.373046875 C0.8007909977951502 17.852808622252265, -0.6567238880540713 14.089445472810665, 0.45321558689752806 11.223536274422198 C1.5631550618491274 8.357627076033731, 5.759901913534609 5.04818106373956, 10.656371190718353 3.177591684669194 C15.552840467902097 1.3070023055988276, 26.636087906786386 0.48432517661153235, 29.832031249999993 0 C33.0279745932136 -0.48432517661153235, 29.832031250000004 0.045273437499999986, 29.832031250000004 0.27164062499999986 M29.832031250000004 0 C35.904323602105855 -0.17340732608884668, 44.11122203209789 1.3070023055988271, 49.00769130928164 3.177591684669194 C53.90416058646539 5.048181063739561, 58.10090743815087 8.357627076033733, 59.21084691310247 11.2235362744222 C60.320786388054074 14.089445472810667, 58.863271502204846 17.852808622252265, 55.66732815899124 20.373046875 C52.47138481577763 22.893285127747735, 46.041595605956175 25.349645971590505, 40.03518685382083 26.344965790908606 C34.02877810168549 27.340285610226708, 25.635284398314518 27.34028561022671, 19.62887564617917 26.34496579090861 C13.622466894043825 25.34964597159051, 7.192677684222364 22.893285127747735, 3.9967343410087572 20.373046875 C0.8007909977951502 17.852808622252265, -0.6567238880540713 14.089445472810665, 0.45321558689752806 11.223536274422198 C1.5631550618491274 8.357627076033731, 5.759901913534609 5.04818106373956, 10.656371190718353 3.177591684669194 C15.552840467902097 1.3070023055988276, 26.636087906786386 0.48432517661153235, 29.832031249999993 0 C33.0279745932136 -0.48432517661153235, 29.832031250000004 0.045273437499999986, 29.832031250000004 0.27164062499999986" stroke="#000000" stroke-width="1" fill="none"></path></g><g transform="translate(720.310546875 756.755859375) rotate(0 29.83203125 13.58203125)"><path d="M29.832031250000004 0 C35.904323602105855 -0.17340732608884668, 44.11122203209789 1.3070023055988271, 49.00769130928164 3.177591684669194 C53.90416058646539 5.048181063739561, 58.10090743815087 8.357627076033733, 59.21084691310247 11.2235362744222 C60.320786388054074 14.089445472810667, 58.863271502204846 17.852808622252265, 55.66732815899124 20.373046875 C52.47138481577763 22.893285127747735, 46.041595605956175 25.349645971590505, 40.03518685382083 26.344965790908606 C34.02877810168549 27.340285610226708, 25.635284398314518 27.34028561022671, 19.62887564617917 26.34496579090861 C13.622466894043825 25.34964597159051, 7.192677684222364 22.893285127747735, 3.9967343410087572 20.373046875 C0.8007909977951502 17.852808622252265, -0.6567238880540713 14.089445472810665, 0.45321558689752806 11.223536274422198 C1.5631550618491274 8.357627076033731, 5.759901913534609 5.04818106373956, 10.656371190718353 3.177591684669194 C15.552840467902097 1.3070023055988276, 26.636087906786386 0.48432517661153235, 29.832031249999993 0 C33.0279745932136 -0.48432517661153235, 29.832031250000004 0.045273437499999986, 29.832031250000004 0.27164062499999986 M29.832031250000004 0 C35.904323602105855 -0.17340732608884668, 44.11122203209789 1.3070023055988271, 49.00769130928164 3.177591684669194 C53.90416058646539 5.048181063739561, 58.10090743815087 8.357627076033733, 59.21084691310247 11.2235362744222 C60.320786388054074 14.089445472810667, 58.863271502204846 17.852808622252265, 55.66732815899124 20.373046875 C52.47138481577763 22.893285127747735, 46.041595605956175 25.349645971590505, 40.03518685382083 26.344965790908606 C34.02877810168549 27.340285610226708, 25.635284398314518 27.34028561022671, 19.62887564617917 26.34496579090861 C13.622466894043825 25.34964597159051, 7.192677684222364 22.893285127747735, 3.9967343410087572 20.373046875 C0.8007909977951502 17.852808622252265, -0.6567238880540713 14.089445472810665, 0.45321558689752806 11.223536274422198 C1.5631550618491274 8.357627076033731, 5.759901913534609 5.04818106373956, 10.656371190718353 3.177591684669194 C15.552840467902097 1.3070023055988276, 26.636087906786386 0.48432517661153235, 29.832031249999993 0 C33.0279745932136 -0.48432517661153235, 29.832031250000004 0.045273437499999986, 29.832031250000004 0.27164062499999986" stroke="none" stroke-width="0" fill="#868e96"></path><path d="M29.832031250000004 0 C35.904323602105855 -0.17340732608884668, 44.11122203209789 1.3070023055988271, 49.00769130928164 3.177591684669194 C53.90416058646539 5.048181063739561, 58.10090743815087 8.357627076033733, 59.21084691310247 11.2235362744222 C60.320786388054074 14.089445472810667, 58.863271502204846 17.852808622252265, 55.66732815899124 20.373046875 C52.47138481577763 22.893285127747735, 46.041595605956175 25.349645971590505, 40.03518685382083 26.344965790908606 C34.02877810168549 27.340285610226708, 25.635284398314518 27.34028561022671, 19.62887564617917 26.34496579090861 C13.622466894043825 25.34964597159051, 7.192677684222364 22.893285127747735, 3.9967343410087572 20.373046875 C0.8007909977951502 17.852808622252265, -0.6567238880540713 14.089445472810665, 0.45321558689752806 11.223536274422198 C1.5631550618491274 8.357627076033731, 5.759901913534609 5.04818106373956, 10.656371190718353 3.177591684669194 C15.552840467902097 1.3070023055988276, 26.636087906786386 0.48432517661153235, 29.832031249999993 0 C33.0279745932136 -0.48432517661153235, 29.832031250000004 0.045273437499999986, 29.832031250000004 0.27164062499999986 M29.832031250000004 0 C35.904323602105855 -0.17340732608884668, 44.11122203209789 1.3070023055988271, 49.00769130928164 3.177591684669194 C53.90416058646539 5.048181063739561, 58.10090743815087 8.357627076033733, 59.21084691310247 11.2235362744222 C60.320786388054074 14.089445472810667, 58.863271502204846 17.852808622252265, 55.66732815899124 20.373046875 C52.47138481577763 22.893285127747735, 46.041595605956175 25.349645971590505, 40.03518685382083 26.344965790908606 C34.02877810168549 27.340285610226708, 25.635284398314518 27.34028561022671, 19.62887564617917 26.34496579090861 C13.622466894043825 25.34964597159051, 7.192677684222364 22.893285127747735, 3.9967343410087572 20.373046875 C0.8007909977951502 17.852808622252265, -0.6567238880540713 14.089445472810665, 0.45321558689752806 11.223536274422198 C1.5631550618491274 8.357627076033731, 5.759901913534609 5.04818106373956, 10.656371190718353 3.177591684669194 C15.552840467902097 1.3070023055988276, 26.636087906786386 0.48432517661153235, 29.832031249999993 0 C33.0279745932136 -0.48432517661153235, 29.832031250000004 0.045273437499999986, 29.832031250000004 0.27164062499999986" stroke="#000000" stroke-width="1" fill="none"></path></g><g><g transform="translate(677.9327978882486 628.212349202347) rotate(179.4545095910316 31.9921875 23.1328125)"><path d="M0 0 C10.6640625 7.7109375, 53.3203125 38.5546875, 63.984375 46.265625 M0 0 C10.6640625 7.7109375, 53.3203125 38.5546875, 63.984375 46.265625" stroke="#000000" stroke-width="1" fill="none"></path></g></g><g transform="translate(191.0703125 1018.3828125) rotate(0 129 24)"><text x="0" y="19" font-family="Cascadia, Segoe UI Emoji" font-size="20px" fill="#000000" text-anchor="start" style="white-space: pre;" direction="ltr">merge feature to main</text><text x="0" y="43" font-family="Cascadia, Segoe UI Emoji" font-size="20px" fill="#000000" text-anchor="start" style="white-space: pre;" direction="ltr">when they are finished</text></g><g><g transform="translate(345.9140625 1007.4609375) rotate(0 22.96875 -34.80078125)"><path d="M0 0 C7.65625 -11.600260416666666, 38.28125 -58.001302083333336, 45.9375 -69.6015625 M0 0 C7.65625 -11.600260416666666, 38.28125 -58.001302083333336, 45.9375 -69.6015625" stroke="#000000" stroke-width="1" fill="none"></path></g><g transform="translate(345.9140625 1007.4609375) rotate(0 22.96875 -34.80078125)"><path d="M38.97228922253011 -40.421332226312686 C41.70991443100893 -51.89040854556248, 44.44753963948776 -63.35948486481228, 45.9375 -69.6015625 M38.97228922253011 -40.421332226312686 C41.488408571934194 -50.96242629473392, 44.00452792133828 -61.50352036315516, 45.9375 -69.6015625" stroke="#000000" stroke-width="1" fill="none"></path></g><g transform="translate(345.9140625 1007.4609375) rotate(0 22.96875 -34.80078125)"><path d="M21.845148521040514 -51.72536043652245 C31.314471251901224 -58.7514710546155, 40.783793982761935 -65.77758167270855, 45.9375 -69.6015625 M21.845148521040514 -51.72536043652245 C30.548292426597097 -58.18297662974146, 39.25143633215368 -64.64059282296046, 45.9375 -69.6015625" stroke="#000000" stroke-width="1" fill="none"></path></g></g><g><g transform="translate(456.4765625 1067.3515625) rotate(0 51.25390625 9.45703125)"><path d="M0 0 C17.084635416666668 3.15234375, 85.42317708333333 15.76171875, 102.5078125 18.9140625 M0 0 C17.084635416666668 3.15234375, 85.42317708333333 15.76171875, 102.5078125 18.9140625" stroke="#000000" stroke-width="1" fill="none"></path></g><g transform="translate(456.4765625 1067.3515625) rotate(0 51.25390625 9.45703125)"><path d="M72.92320694038227 23.88911163361017 C84.43501900664614 21.953245680246784, 95.94683107291 20.017379726883394, 102.5078125 18.9140625 M72.92320694038227 23.88911163361017 C80.5148278906658 22.61247851591337, 88.10644884094933 21.33584539821657, 102.5078125 18.9140625" stroke="#000000" stroke-width="1" fill="none"></path></g><g transform="translate(456.4765625 1067.3515625) rotate(0 51.25390625 9.45703125)"><path d="M76.64678986852164 3.708553351860173 C86.70970018094908 9.625244156897342, 96.77261049337653 15.541934961934508, 102.5078125 18.9140625 M76.64678986852164 3.708553351860173 C83.28291286192295 7.610395530425887, 89.91903585532427 11.5122377089916, 102.5078125 18.9140625" stroke="#000000" stroke-width="1" fill="none"></path></g></g><g transform="translate(10 723.859375) rotate(0 123 24)"><text x="0" y="19" font-family="Cascadia, Segoe UI Emoji" font-size="20px" fill="#000000" text-anchor="start" style="white-space: pre;" direction="ltr">merge task to feature</text><text x="0" y="43" font-family="Cascadia, Segoe UI Emoji" font-size="20px" fill="#000000" text-anchor="start" style="white-space: pre;" direction="ltr">when it is finished</text></g><g><g transform="translate(152.0703125 705.90625) rotate(0 48.83203125 -38.83203125)"><path d="M0 0 C16.27734375 -12.944010416666666, 81.38671875 -64.72005208333333, 97.6640625 -77.6640625 M0 0 C16.27734375 -12.944010416666666, 81.38671875 -64.72005208333333, 97.6640625 -77.6640625" stroke="#000000" stroke-width="1" fill="none"></path></g><g transform="translate(152.0703125 705.90625) rotate(0 48.83203125 -38.83203125)"><path d="M81.98566597323261 -52.0869656680793 C85.9221697676582 -58.508817453582395, 89.8586735620838 -64.93066923908549, 97.6640625 -77.6640625 M81.98566597323261 -52.0869656680793 C86.79382090066946 -59.93079357177914, 91.60197582810629 -67.77462147547898, 97.6640625 -77.6640625" stroke="#000000" stroke-width="1" fill="none"></path></g><g transform="translate(152.0703125 705.90625) rotate(0 48.83203125 -38.83203125)"><path d="M69.21307302834248 -68.14874862794969 C76.35649664434375 -70.5378366382272, 83.49992026034502 -72.92692464850471, 97.6640625 -77.6640625 M69.21307302834248 -68.14874862794969 C77.9382487811724 -71.06684699355085, 86.66342453400233 -73.98494535915201, 97.6640625 -77.6640625" stroke="#000000" stroke-width="1" fill="none"></path></g></g><g transform="translate(714.1015625 588.5078125) rotate(0 94 24)"><text x="0" y="19" font-family="Cascadia, Segoe UI Emoji" font-size="20px" fill="#000000" text-anchor="start" style="white-space: pre;" direction="ltr">a task branch</text><text x="0" y="43" font-family="Cascadia, Segoe UI Emoji" font-size="20px" fill="#000000" text-anchor="start" style="white-space: pre;" direction="ltr">for this feature</text></g></svg>